<svg id="svg" version="1.1" xmlns="http://www.w3.org/2000/svg" xmlns:xlink="http://www.w3.org/1999/xlink" width="400" height="400" viewBox="0, 0, 400,400"><g id="svgg"><path id="path0" d="M201.400 24.443 C 207.735 24.718,209.689 24.953,213.800 25.930 C 217.052 26.704,220.609 28.052,224.552 30.006 C 226.778 31.110,228.240 31.723,227.800 31.369 C 222.663 27.235,210.374 23.967,200.400 24.081 L 194.600 24.148 201.400 24.443 M190.800 24.800 L 189.400 25.095 191.000 25.119 C 191.880 25.133,192.960 24.989,193.400 24.800 C 194.442 24.352,192.926 24.352,190.800 24.800 M187.200 25.600 L 186.200 25.920 187.200 25.954 C 187.750 25.973,188.470 25.813,188.800 25.600 C 189.564 25.106,188.742 25.106,187.200 25.600 M183.600 26.639 C 181.591 27.309,181.176 27.478,177.900 28.953 C 176.635 29.523,175.600 30.088,175.600 30.209 C 175.600 30.329,175.915 30.266,176.300 30.067 C 176.916 29.750,178.207 29.175,181.000 27.975 C 181.440 27.786,182.745 27.333,183.900 26.969 C 185.055 26.606,186.000 26.239,186.000 26.154 C 186.000 25.903,185.503 26.004,183.600 26.639 M171.900 32.107 C 170.415 33.016,169.200 33.900,169.200 34.072 C 169.200 34.307,174.143 31.378,175.167 30.537 C 176.001 29.851,174.064 30.782,171.900 32.107 M192.725 30.728 C 192.354 30.878,195.774 31.021,200.325 31.046 C 205.462 31.075,207.993 30.970,207.000 30.770 C 205.066 30.379,193.674 30.346,192.725 30.728 M186.200 31.600 L 185.400 31.944 186.200 31.932 C 186.640 31.926,187.450 31.776,188.000 31.600 L 189.000 31.280 188.000 31.268 C 187.450 31.262,186.640 31.411,186.200 31.600 M211.400 31.623 C 212.280 31.805,213.450 31.946,214.000 31.937 L 215.000 31.920 214.000 31.600 C 213.450 31.424,212.280 31.283,211.400 31.286 L 209.800 31.292 211.400 31.623 M181.800 32.400 L 181.000 32.744 181.800 32.744 C 182.240 32.744,182.960 32.589,183.400 32.400 L 184.200 32.056 183.400 32.056 C 182.960 32.056,182.240 32.211,181.800 32.400 M216.600 32.400 C 217.040 32.589,217.850 32.744,218.400 32.744 C 219.312 32.744,219.329 32.713,218.600 32.400 C 218.160 32.211,217.350 32.056,216.800 32.056 C 215.888 32.056,215.871 32.087,216.600 32.400 M228.800 32.167 C 228.800 32.399,231.423 34.000,231.803 34.000 C 231.973 34.000,231.449 33.550,230.638 33.000 C 229.184 32.013,228.800 31.839,228.800 32.167 M220.200 33.200 C 220.640 33.389,221.450 33.544,222.000 33.544 C 222.912 33.544,222.929 33.513,222.200 33.200 C 221.760 33.011,220.950 32.856,220.400 32.856 C 219.488 32.856,219.471 32.887,220.200 33.200 M175.600 34.000 C 174.776 34.264,174.741 34.326,175.400 34.354 C 175.840 34.373,176.470 34.213,176.800 34.000 C 177.501 33.547,177.014 33.547,175.600 34.000 M223.237 33.771 C 223.579 34.112,229.690 36.043,229.868 35.865 C 229.968 35.765,228.644 35.214,226.924 34.641 C 223.948 33.650,222.860 33.393,223.237 33.771 M170.400 35.816 C 166.477 37.409,165.136 38.069,165.362 38.295 C 165.450 38.383,165.855 38.261,166.261 38.022 C 167.435 37.334,172.857 35.200,173.431 35.200 C 173.718 35.200,174.064 35.020,174.200 34.800 C 174.578 34.188,174.078 34.322,170.400 35.816 M230.600 36.400 C 230.736 36.620,231.073 36.800,231.348 36.800 C 231.624 36.800,232.621 37.173,233.564 37.628 C 234.506 38.083,235.354 38.380,235.447 38.286 C 235.615 38.118,231.150 36.000,230.626 36.000 C 230.476 36.000,230.464 36.180,230.600 36.400 M154.111 230.459 C 152.071 231.448,150.612 233.107,147.827 237.600 C 146.668 239.470,143.648 244.330,141.116 248.400 C 134.337 259.297,134.396 259.180,134.056 262.361 C 133.891 263.910,133.675 265.232,133.578 265.298 C 133.072 265.640,120.860 269.930,119.000 270.419 C 118.340 270.592,116.540 271.113,115.000 271.577 C 109.393 273.265,101.526 275.239,93.392 276.997 C 67.621 282.568,53.087 294.314,44.387 316.600 C 43.871 317.920,43.274 319.119,43.059 319.264 C 42.832 319.418,43.072 320.034,43.634 320.739 C 44.165 321.405,45.230 322.815,46.000 323.872 C 46.770 324.930,47.805 326.209,48.300 326.716 C 48.795 327.222,49.200 327.771,49.200 327.935 C 49.200 328.099,49.785 328.861,50.500 329.627 C 51.215 330.394,52.295 331.680,52.900 332.484 C 53.505 333.289,54.855 334.849,55.900 335.951 C 56.945 337.053,58.700 338.974,59.800 340.219 C 62.524 343.304,67.139 347.901,69.217 349.600 C 70.159 350.370,71.782 351.810,72.824 352.800 C 75.604 355.441,78.453 357.781,79.070 357.930 C 79.367 358.002,79.507 358.227,79.381 358.430 C 79.256 358.634,79.433 358.800,79.776 358.800 C 80.119 358.800,80.400 358.980,80.400 359.200 C 80.400 359.420,80.588 359.600,80.818 359.600 C 81.048 359.600,81.686 360.050,82.236 360.600 C 82.786 361.150,83.400 361.600,83.600 361.600 C 83.800 361.600,84.414 362.050,84.964 362.600 C 85.514 363.150,86.152 363.600,86.382 363.600 C 86.612 363.600,86.800 363.780,86.800 364.000 C 86.800 364.220,87.070 364.400,87.400 364.400 C 87.730 364.400,88.000 364.550,88.000 364.732 C 88.000 364.915,88.495 365.319,89.100 365.630 C 89.705 365.940,90.491 366.511,90.847 366.897 C 91.203 367.284,91.670 367.600,91.885 367.600 C 92.100 367.600,92.602 367.960,93.000 368.400 C 93.398 368.840,93.884 369.200,94.079 369.200 C 94.274 369.200,94.820 369.560,95.292 370.000 C 95.764 370.440,96.387 370.800,96.675 370.800 C 96.964 370.800,97.200 370.952,97.200 371.137 C 97.200 371.323,98.055 371.905,99.100 372.432 C 100.145 372.958,101.132 373.572,101.294 373.795 C 101.486 374.060,101.592 374.062,101.600 373.800 C 101.608 373.533,101.710 373.533,101.906 373.800 C 102.314 374.355,103.883 375.200,104.506 375.200 C 104.791 375.200,105.283 375.560,105.600 376.000 C 105.917 376.440,106.497 376.800,106.888 376.800 C 107.280 376.800,107.600 376.980,107.600 377.200 C 107.600 377.420,107.960 377.600,108.400 377.600 C 108.840 377.600,109.200 377.780,109.200 378.000 C 109.200 378.220,109.470 378.400,109.800 378.400 C 110.130 378.400,110.400 378.580,110.400 378.800 C 110.400 379.020,110.760 379.200,111.200 379.200 C 111.640 379.200,112.000 379.380,112.000 379.600 C 112.000 379.820,112.360 380.000,112.800 380.000 C 113.240 380.000,113.600 380.180,113.600 380.400 C 113.600 380.620,113.960 380.800,114.400 380.800 C 114.840 380.800,115.200 380.980,115.200 381.200 C 115.200 381.420,115.560 381.600,116.000 381.600 C 116.440 381.600,116.800 381.780,116.800 382.000 C 116.800 382.220,117.160 382.400,117.600 382.400 C 118.040 382.400,118.400 382.580,118.400 382.800 C 118.400 383.020,118.636 383.200,118.925 383.200 C 119.214 383.200,120.195 383.560,121.106 384.000 C 122.016 384.440,123.040 384.800,123.381 384.800 C 123.721 384.800,124.000 384.980,124.000 385.200 C 124.000 385.420,124.360 385.600,124.800 385.600 C 125.240 385.600,125.600 385.780,125.600 386.000 C 125.600 386.220,125.872 386.400,126.205 386.400 C 126.538 386.400,127.168 386.580,127.605 386.800 C 128.042 387.020,128.758 387.380,129.195 387.600 C 129.632 387.820,130.264 388.000,130.600 388.000 C 130.936 388.000,131.523 388.159,131.905 388.353 C 134.297 389.570,140.539 391.600,141.889 391.600 C 142.390 391.600,142.800 391.780,142.800 392.000 C 142.800 392.220,143.340 392.400,144.000 392.400 C 144.660 392.400,145.200 392.580,145.200 392.800 C 145.200 393.020,145.830 393.200,146.600 393.200 C 147.370 393.200,148.000 393.380,148.000 393.600 C 148.000 393.820,148.720 394.000,149.600 394.000 C 150.480 394.000,151.200 394.180,151.200 394.400 C 151.200 394.620,151.819 394.800,152.576 394.800 C 153.333 394.800,154.064 394.980,154.200 395.200 C 154.336 395.420,155.157 395.600,156.024 395.600 C 156.891 395.600,157.600 395.780,157.600 396.000 C 157.600 396.220,158.309 396.400,159.176 396.400 C 160.043 396.400,160.864 396.580,161.000 396.800 C 161.136 397.020,162.137 397.200,163.224 397.200 C 164.311 397.200,165.200 397.380,165.200 397.600 C 165.200 397.820,166.179 398.000,167.376 398.000 C 168.573 398.000,169.664 398.180,169.800 398.400 C 169.936 398.620,171.171 398.800,172.544 398.800 C 174.007 398.800,175.247 399.007,175.540 399.300 C 175.929 399.689,181.365 399.800,200.000 399.800 C 218.635 399.800,224.071 399.689,224.460 399.300 C 224.753 399.007,225.993 398.800,227.456 398.800 C 228.829 398.800,230.064 398.620,230.200 398.400 C 230.336 398.180,231.427 398.000,232.624 398.000 C 233.821 398.000,234.800 397.820,234.800 397.600 C 234.800 397.380,235.700 397.200,236.800 397.200 C 237.900 397.200,238.800 397.020,238.800 396.800 C 238.800 396.580,239.610 396.400,240.600 396.400 C 241.590 396.400,242.400 396.220,242.400 396.000 C 242.400 395.780,243.109 395.600,243.976 395.600 C 244.843 395.600,245.664 395.420,245.800 395.200 C 245.936 394.980,246.667 394.800,247.424 394.800 C 248.181 394.800,248.800 394.620,248.800 394.400 C 248.800 394.180,249.520 394.000,250.400 394.000 C 251.280 394.000,252.000 393.820,252.000 393.600 C 252.000 393.380,252.630 393.200,253.400 393.200 C 254.170 393.200,254.800 393.020,254.800 392.800 C 254.800 392.580,255.340 392.400,256.000 392.400 C 256.660 392.400,257.200 392.220,257.200 392.000 C 257.200 391.780,257.629 391.600,258.154 391.600 C 259.178 391.600,262.953 390.560,264.095 389.963 C 264.477 389.763,264.980 389.600,265.214 389.600 C 265.448 389.600,266.384 389.240,267.294 388.800 C 268.205 388.360,269.189 388.000,269.481 388.000 C 269.772 388.000,270.413 387.792,270.905 387.538 C 272.782 386.567,273.207 386.400,273.795 386.400 C 274.128 386.400,274.400 386.220,274.400 386.000 C 274.400 385.780,274.760 385.600,275.200 385.600 C 275.640 385.600,276.000 385.420,276.000 385.200 C 276.000 384.980,276.450 384.800,277.000 384.800 C 277.550 384.800,278.000 384.620,278.000 384.400 C 278.000 384.180,278.450 384.000,279.000 384.000 C 279.550 384.000,280.000 383.820,280.000 383.600 C 280.000 383.380,280.360 383.200,280.800 383.200 C 281.240 383.200,281.600 383.020,281.600 382.800 C 281.600 382.580,281.960 382.400,282.400 382.400 C 282.840 382.400,283.200 382.220,283.200 382.000 C 283.200 381.780,283.560 381.600,284.000 381.600 C 284.440 381.600,284.800 381.420,284.800 381.200 C 284.800 380.980,285.160 380.800,285.600 380.800 C 286.040 380.800,286.400 380.620,286.400 380.400 C 286.400 380.180,286.760 380.000,287.200 380.000 C 287.640 380.000,288.000 379.820,288.000 379.600 C 288.000 379.380,288.360 379.200,288.800 379.200 C 289.240 379.200,289.600 379.020,289.600 378.800 C 289.600 378.580,289.870 378.400,290.200 378.400 C 290.530 378.400,290.800 378.220,290.800 378.000 C 290.800 377.780,291.160 377.600,291.600 377.600 C 292.040 377.600,292.401 377.465,292.403 377.300 C 292.405 377.135,292.810 376.794,293.303 376.543 C 299.128 373.575,302.417 371.743,302.800 371.254 C 302.910 371.114,303.492 370.745,304.093 370.435 C 304.695 370.126,305.542 369.541,305.977 369.136 C 306.411 368.731,306.909 368.400,307.083 368.400 C 307.257 368.399,307.923 367.949,308.562 367.400 C 309.201 366.850,309.868 366.400,310.044 366.400 C 310.220 366.400,310.814 365.950,311.364 365.400 C 311.914 364.850,312.570 364.400,312.821 364.400 C 313.073 364.400,313.783 363.860,314.400 363.200 C 315.017 362.540,315.737 362.000,316.000 362.000 C 316.263 362.000,316.983 361.460,317.600 360.800 C 318.217 360.140,318.919 359.600,319.160 359.600 C 319.402 359.600,319.600 359.420,319.600 359.200 C 319.600 358.980,319.855 358.800,320.167 358.800 C 320.478 358.800,320.793 358.662,320.867 358.493 C 320.940 358.324,321.899 357.469,322.997 356.593 C 324.095 355.717,325.805 354.188,326.797 353.197 C 327.789 352.205,329.404 350.765,330.387 349.997 C 332.302 348.500,337.977 342.833,340.600 339.798 C 341.480 338.780,343.325 336.768,344.700 335.327 C 346.075 333.886,347.200 332.543,347.200 332.343 C 347.200 332.143,348.010 331.169,349.000 330.179 C 349.990 329.189,350.800 328.223,350.800 328.032 C 350.800 327.841,351.340 327.107,352.000 326.400 C 352.660 325.693,353.200 324.998,353.200 324.854 C 353.200 324.710,353.605 324.141,354.100 323.590 C 355.770 321.731,357.184 319.437,356.805 319.203 C 356.598 319.075,355.781 317.357,354.989 315.385 C 346.696 294.722,331.021 282.008,308.200 277.432 C 302.608 276.311,292.706 273.865,286.100 271.972 C 285.385 271.768,284.215 271.442,283.500 271.249 C 282.785 271.055,280.310 270.260,278.000 269.482 C 271.814 267.398,272.376 267.247,271.590 271.200 C 270.854 274.900,269.737 279.614,269.219 281.200 C 269.040 281.750,268.671 283.010,268.400 284.000 C 268.129 284.990,267.769 286.250,267.600 286.800 C 267.431 287.350,267.066 288.610,266.789 289.600 C 266.511 290.590,266.021 292.210,265.698 293.200 C 264.976 295.417,263.180 302.291,261.989 307.400 C 261.078 311.306,259.983 319.897,259.684 325.481 C 259.324 332.218,259.109 332.772,256.526 333.625 C 253.977 334.466,251.047 333.116,249.961 330.600 C 249.771 330.160,249.075 328.900,248.414 327.800 C 242.712 318.305,235.622 299.962,233.495 289.200 C 233.386 288.650,232.845 285.950,232.293 283.200 C 229.454 269.062,229.178 240.704,231.814 233.900 C 232.221 232.849,231.869 233.025,229.533 235.035 C 225.099 238.851,215.846 244.546,210.800 246.565 C 199.176 251.216,186.229 247.255,170.712 234.301 C 165.710 230.125,158.324 228.416,154.111 230.459 " stroke="none" fill="#679ff5" fill-rule="evenodd"></path><path id="path1" d="M193.400 24.800 C 192.960 24.989,191.983 25.156,191.228 25.172 C 190.474 25.187,189.304 25.365,188.628 25.566 C 184.490 26.801,181.698 27.684,181.000 27.979 C 177.426 29.489,174.969 30.733,172.400 32.330 C 170.750 33.356,168.909 34.466,168.308 34.798 C 166.850 35.601,163.501 38.434,163.733 38.667 C 163.835 38.768,164.791 38.400,165.859 37.849 C 184.254 28.356,214.677 28.167,233.999 37.426 C 237.286 39.001,238.137 39.165,236.761 37.955 C 229.420 31.504,219.215 26.754,208.576 24.837 C 205.741 24.326,194.567 24.299,193.400 24.800 M221.000 76.049 C 219.020 76.213,216.590 76.530,215.600 76.752 C 214.610 76.974,213.080 77.321,212.200 77.521 C 211.320 77.722,208.713 78.542,206.406 79.343 C 200.947 81.239,199.119 81.260,195.278 79.471 C 193.478 78.632,186.797 84.102,184.562 88.246 C 184.100 89.101,183.370 90.430,182.937 91.200 C 180.267 95.957,178.444 103.099,177.586 112.159 C 177.059 117.724,176.945 118.081,174.661 121.331 C 165.394 134.518,167.331 166.199,179.231 196.080 C 188.071 218.275,197.272 230.570,212.489 240.522 C 216.388 243.072,216.716 243.379,216.089 243.898 C 214.849 244.925,218.508 242.742,223.000 239.776 C 227.198 237.004,231.647 233.504,231.934 232.748 C 232.008 232.554,232.818 231.624,233.734 230.681 C 237.021 227.300,239.451 224.576,240.406 223.200 C 240.941 222.430,241.669 221.482,242.025 221.093 C 242.381 220.705,242.919 219.895,243.222 219.293 C 243.524 218.692,244.071 217.750,244.438 217.200 C 246.547 214.039,253.600 200.028,253.600 199.000 C 253.600 198.765,255.070 195.369,255.633 194.305 C 255.835 193.923,256.000 193.336,256.000 193.000 C 256.000 192.664,256.180 192.032,256.400 191.595 C 256.620 191.158,256.980 190.442,257.200 190.005 C 257.420 189.568,257.600 188.859,257.600 188.429 C 257.600 187.999,257.780 187.536,258.000 187.400 C 258.220 187.264,258.400 186.801,258.400 186.371 C 258.400 185.941,258.562 185.277,258.761 184.895 C 258.960 184.513,259.337 183.390,259.600 182.400 C 259.863 181.410,260.240 180.287,260.439 179.905 C 260.638 179.523,260.800 178.846,260.800 178.400 C 260.800 177.954,260.962 177.277,261.161 176.895 C 261.360 176.513,261.706 175.480,261.930 174.600 C 262.154 173.720,262.634 172.010,262.995 170.800 C 266.190 160.113,266.198 135.419,263.010 128.162 C 261.289 124.246,259.931 121.706,258.965 120.600 C 257.493 118.915,257.109 117.830,256.769 114.400 C 255.879 105.417,255.331 102.506,253.491 97.000 C 250.611 88.382,245.613 81.993,239.276 78.826 C 234.020 76.200,228.776 75.403,221.000 76.049 M341.000 294.000 C 342.750 295.760,344.271 297.200,344.381 297.200 C 344.491 297.200,343.150 295.760,341.400 294.000 C 339.650 292.240,338.129 290.800,338.019 290.800 C 337.909 290.800,339.250 292.240,341.000 294.000 " stroke="none" fill="#fac4ad" fill-rule="evenodd"></path><path id="path2" d="M191.700 0.268 C 190.985 0.369,190.400 0.619,190.400 0.825 C 190.400 1.031,189.860 1.200,189.200 1.200 C 188.540 1.200,188.000 1.380,188.000 1.600 C 188.000 1.820,187.640 2.000,187.200 2.000 C 186.760 2.000,186.400 2.180,186.400 2.400 C 186.400 2.620,186.040 2.800,185.600 2.800 C 185.160 2.800,184.800 2.980,184.800 3.200 C 184.800 3.420,184.440 3.600,184.000 3.600 C 183.560 3.600,183.200 3.780,183.200 4.000 C 183.200 4.220,182.916 4.400,182.569 4.400 C 182.221 4.400,181.246 5.120,180.400 6.000 C 179.554 6.880,178.714 7.600,178.531 7.601 C 178.349 7.602,177.480 8.425,176.600 9.431 C 175.720 10.437,174.595 11.688,174.100 12.212 C 173.605 12.735,173.200 13.442,173.200 13.782 C 173.200 14.122,173.020 14.400,172.800 14.400 C 172.580 14.400,172.400 14.760,172.400 15.200 C 172.400 15.640,172.220 16.000,172.000 16.000 C 171.780 16.000,171.600 16.360,171.600 16.800 C 171.600 17.240,171.420 17.600,171.200 17.600 C 170.980 17.600,170.800 18.134,170.800 18.786 C 170.800 19.438,170.552 20.743,170.250 21.686 C 169.021 25.511,168.765 27.157,168.880 30.477 L 169.000 33.954 171.108 32.623 C 174.852 30.260,180.410 27.663,184.400 26.413 C 199.870 21.564,217.138 24.012,230.482 32.944 C 232.163 34.069,232.446 33.550,232.158 29.872 C 231.921 26.839,231.563 25.055,230.388 21.045 C 230.024 19.803,230.039 19.414,230.466 19.114 C 230.883 18.821,230.891 18.695,230.500 18.536 C 230.225 18.425,230.000 17.988,230.000 17.567 C 230.000 17.145,229.820 16.800,229.600 16.800 C 229.380 16.800,229.200 16.480,229.200 16.088 C 229.200 15.697,228.840 15.117,228.400 14.800 C 227.960 14.483,227.600 13.943,227.600 13.600 C 227.600 13.257,227.240 12.717,226.800 12.400 C 226.360 12.083,225.999 11.638,225.998 11.412 C 225.994 10.691,221.214 6.000,220.484 6.000 C 220.315 6.000,219.917 5.640,219.600 5.200 C 219.283 4.760,218.786 4.400,218.495 4.400 C 218.204 4.400,217.580 4.040,217.108 3.600 C 216.636 3.160,215.833 2.800,215.325 2.800 C 214.816 2.800,214.400 2.620,214.400 2.400 C 214.400 2.180,214.040 2.000,213.600 2.000 C 213.160 2.000,212.800 1.820,212.800 1.600 C 212.800 1.380,212.476 1.200,212.080 1.200 C 211.684 1.200,211.136 0.976,210.862 0.702 C 210.363 0.203,194.691 -0.152,191.700 0.268 M191.200 31.201 C 187.126 31.646,181.259 32.719,178.400 33.543 C 177.630 33.765,176.550 34.063,176.000 34.206 C 175.450 34.350,174.640 34.615,174.200 34.795 C 173.760 34.976,171.870 35.711,170.000 36.429 C 155.981 41.813,143.930 52.071,137.104 64.432 C 136.547 65.439,135.894 66.609,135.652 67.032 C 133.848 70.185,131.231 77.397,130.077 82.400 C 128.762 88.097,128.625 90.481,128.612 107.795 L 128.600 125.389 131.607 126.007 C 133.260 126.347,135.192 126.865,135.899 127.158 C 137.592 127.859,138.092 127.612,138.755 125.750 C 139.058 124.898,140.285 122.736,141.482 120.946 L 143.658 117.693 144.202 112.146 C 147.368 79.886,165.721 68.322,196.198 79.384 C 199.733 80.667,201.499 80.662,205.002 79.359 C 207.683 78.362,208.550 78.091,211.900 77.202 C 234.468 71.213,250.165 79.782,255.126 100.800 C 256.149 105.136,256.368 106.468,256.801 111.000 C 257.392 117.185,257.696 118.286,259.433 120.562 C 260.223 121.597,261.396 123.604,262.039 125.022 C 263.297 127.797,263.459 127.900,265.161 127.020 C 265.778 126.701,267.614 126.196,269.241 125.897 L 272.200 125.353 272.192 107.977 C 272.186 95.432,272.034 89.655,271.647 87.200 C 268.067 64.527,253.813 46.156,233.000 37.392 C 232.120 37.022,231.040 36.566,230.600 36.381 C 226.272 34.554,217.895 32.458,211.600 31.628 C 207.392 31.073,194.791 30.809,191.200 31.201 M261.126 179.400 C 255.448 196.304,254.991 197.479,250.317 207.166 C 245.628 216.883,241.459 223.148,235.467 229.482 C 231.704 233.459,231.683 233.499,231.162 237.600 C 229.188 253.156,229.600 269.791,232.293 283.200 C 232.845 285.950,233.386 288.650,233.495 289.200 C 235.622 299.962,242.712 318.305,248.414 327.800 C 249.075 328.900,249.771 330.160,249.961 330.600 C 251.047 333.116,253.977 334.466,256.526 333.625 C 259.109 332.772,259.324 332.218,259.684 325.481 C 259.983 319.897,261.078 311.306,261.989 307.400 C 263.116 302.565,264.936 295.618,265.603 293.600 C 265.858 292.830,266.242 291.570,266.456 290.800 C 266.670 290.030,267.025 288.770,267.245 288.000 C 267.465 287.230,267.825 285.970,268.045 285.200 C 268.265 284.430,268.603 283.260,268.795 282.600 C 273.677 265.852,275.034 247.598,272.407 233.990 C 271.203 227.749,269.704 221.482,268.680 218.400 C 268.156 216.827,266.262 209.311,265.201 204.600 C 264.517 201.560,263.865 198.023,262.845 191.800 C 262.499 189.691,261.774 183.255,261.492 179.800 C 261.412 178.812,261.347 178.741,261.126 179.400 " stroke="none" fill="#4c3c54" fill-rule="evenodd"></path><path id="path3" d="M169.400 18.800 C 169.264 19.020,168.278 19.200,167.210 19.200 C 166.141 19.200,165.207 19.370,165.133 19.578 C 165.060 19.786,164.055 19.998,162.900 20.049 C 161.745 20.101,160.800 20.291,160.800 20.471 C 160.800 20.652,160.080 20.800,159.200 20.800 C 158.320 20.800,157.600 20.980,157.600 21.200 C 157.600 21.420,156.801 21.600,155.824 21.600 C 154.847 21.600,153.936 21.780,153.800 22.000 C 153.664 22.220,152.923 22.400,152.153 22.400 C 151.321 22.400,150.853 22.562,151.000 22.800 C 151.149 23.042,150.604 23.200,149.624 23.200 C 148.731 23.200,148.000 23.380,148.000 23.600 C 148.000 23.820,147.359 24.000,146.576 24.000 C 145.729 24.000,145.253 24.162,145.400 24.400 C 145.547 24.638,145.071 24.800,144.224 24.800 C 143.441 24.800,142.800 24.991,142.800 25.224 C 142.800 25.457,142.639 25.548,142.443 25.426 C 142.246 25.305,141.346 25.466,140.443 25.785 C 139.539 26.104,138.800 26.246,138.800 26.102 C 138.800 25.958,138.584 26.056,138.320 26.320 C 138.056 26.584,137.437 26.800,136.944 26.800 C 136.451 26.800,135.936 26.980,135.800 27.200 C 135.664 27.420,135.113 27.600,134.576 27.600 C 134.039 27.600,133.600 27.780,133.600 28.000 C 133.600 28.220,133.150 28.400,132.600 28.400 C 132.050 28.400,131.600 28.580,131.600 28.800 C 131.600 29.020,131.238 29.200,130.795 29.200 C 130.352 29.200,129.632 29.380,129.195 29.600 C 128.758 29.820,128.042 30.180,127.605 30.400 C 127.168 30.620,126.538 30.800,126.205 30.800 C 125.872 30.800,125.600 30.980,125.600 31.200 C 125.600 31.420,125.240 31.600,124.800 31.600 C 124.360 31.600,124.000 31.780,124.000 32.000 C 124.000 32.220,123.685 32.401,123.300 32.401 C 122.915 32.402,122.011 32.762,121.290 33.201 C 120.570 33.641,119.625 34.000,119.190 34.000 C 118.756 34.000,118.400 34.180,118.400 34.400 C 118.400 34.620,118.040 34.800,117.600 34.800 C 117.160 34.800,116.800 34.980,116.800 35.200 C 116.800 35.420,116.440 35.600,116.000 35.600 C 115.560 35.600,115.200 35.780,115.200 36.000 C 115.200 36.220,114.840 36.400,114.400 36.400 C 113.960 36.400,113.600 36.580,113.600 36.800 C 113.600 37.020,113.240 37.200,112.800 37.200 C 112.360 37.200,112.000 37.380,112.000 37.600 C 112.000 37.820,111.640 38.000,111.200 38.000 C 110.760 38.000,110.400 38.180,110.400 38.400 C 110.400 38.620,110.130 38.800,109.800 38.800 C 109.470 38.800,109.200 38.980,109.200 39.200 C 109.200 39.420,108.840 39.600,108.400 39.600 C 107.960 39.600,107.600 39.780,107.600 40.000 C 107.600 40.220,107.240 40.400,106.800 40.400 C 106.360 40.400,106.000 40.549,106.000 40.732 C 106.000 40.915,104.605 41.764,102.900 42.620 C 101.195 43.476,99.710 44.272,99.600 44.389 C 99.490 44.506,98.905 44.856,98.300 45.168 C 97.695 45.480,97.200 45.885,97.200 46.068 C 97.200 46.250,96.964 46.400,96.675 46.400 C 96.387 46.400,95.802 46.715,95.375 47.100 C 94.949 47.485,94.093 48.062,93.474 48.381 C 92.855 48.701,91.821 49.466,91.178 50.081 C 90.534 50.697,89.775 51.200,89.492 51.200 C 89.209 51.200,88.717 51.560,88.400 52.000 C 88.083 52.440,87.620 52.800,87.371 52.800 C 87.122 52.800,86.354 53.340,85.663 54.000 C 84.972 54.660,84.227 55.200,84.007 55.200 C 83.787 55.200,83.091 55.740,82.460 56.400 C 81.829 57.060,81.108 57.600,80.857 57.600 C 80.606 57.600,80.400 57.780,80.400 58.000 C 80.400 58.220,80.208 58.400,79.973 58.400 C 79.388 58.400,76.826 60.506,73.768 63.500 C 72.364 64.875,71.055 66.000,70.861 66.000 C 70.262 66.000,57.600 78.783,57.600 79.387 C 57.600 79.502,56.700 80.515,55.600 81.639 C 54.500 82.762,53.600 83.853,53.600 84.064 C 53.600 84.275,53.392 84.319,53.138 84.162 C 52.884 84.005,52.784 84.050,52.915 84.262 C 53.046 84.475,52.177 85.717,50.983 87.024 C 49.789 88.331,48.810 89.553,48.806 89.740 C 48.803 89.926,48.260 90.583,47.600 91.200 C 46.940 91.817,46.400 92.430,46.400 92.564 C 46.400 92.698,45.905 93.362,45.300 94.041 C 44.695 94.720,44.200 95.398,44.200 95.547 C 44.200 95.697,43.795 96.253,43.300 96.785 C 42.805 97.316,42.400 97.979,42.400 98.257 C 42.400 98.536,41.950 99.214,41.400 99.764 C 40.850 100.314,40.400 101.002,40.400 101.294 C 40.400 101.585,40.040 102.083,39.600 102.400 C 39.160 102.717,38.800 103.297,38.800 103.688 C 38.800 104.080,38.620 104.400,38.400 104.400 C 38.180 104.400,38.000 104.636,38.000 104.925 C 38.000 105.213,37.640 105.836,37.200 106.308 C 36.760 106.780,36.400 107.404,36.400 107.695 C 36.400 107.986,36.040 108.483,35.600 108.800 C 35.160 109.117,34.800 109.607,34.800 109.888 C 34.800 110.170,34.620 110.400,34.400 110.400 C 34.180 110.400,34.000 110.683,34.000 111.028 C 34.000 111.373,33.460 112.441,32.800 113.400 C 32.140 114.359,31.600 115.337,31.600 115.572 C 31.600 115.807,31.420 116.000,31.200 116.000 C 30.980 116.000,30.800 116.234,30.800 116.520 C 30.800 117.256,29.859 119.193,29.500 119.197 C 29.335 119.199,29.200 119.560,29.200 120.000 C 29.200 120.440,29.020 120.800,28.800 120.800 C 28.580 120.800,28.400 121.160,28.400 121.600 C 28.400 122.040,28.220 122.400,28.000 122.400 C 27.780 122.400,27.600 122.760,27.600 123.200 C 27.600 123.640,27.420 124.000,27.200 124.000 C 26.980 124.000,26.800 124.360,26.800 124.800 C 26.800 125.240,26.620 125.600,26.400 125.600 C 26.180 125.600,26.037 125.735,26.082 125.900 C 26.127 126.065,25.857 126.776,25.482 127.480 C 25.107 128.184,24.800 129.039,24.800 129.380 C 24.800 129.721,24.609 130.000,24.376 130.000 C 24.143 130.000,24.044 130.148,24.156 130.329 C 24.268 130.509,24.098 131.160,23.780 131.774 C 23.461 132.389,23.200 133.141,23.200 133.446 C 23.200 133.751,23.020 134.000,22.800 134.000 C 22.580 134.000,22.400 134.360,22.400 134.800 C 22.400 135.240,22.259 135.600,22.087 135.600 C 21.915 135.600,21.734 136.095,21.684 136.700 C 21.634 137.305,21.415 137.860,21.197 137.933 C 20.978 138.007,20.800 138.401,20.800 138.810 C 20.800 139.218,20.620 139.664,20.400 139.800 C 20.180 139.936,20.000 140.487,20.000 141.024 C 20.000 141.561,19.820 142.000,19.600 142.000 C 19.380 142.000,19.200 142.450,19.200 143.000 C 19.200 143.550,19.020 144.000,18.800 144.000 C 18.580 144.000,18.400 144.540,18.400 145.200 C 18.400 145.860,18.220 146.400,18.000 146.400 C 17.780 146.400,17.600 146.940,17.600 147.600 C 17.600 148.260,17.420 148.800,17.200 148.800 C 16.980 148.800,16.800 149.340,16.800 150.000 C 16.800 150.660,16.620 151.200,16.400 151.200 C 16.180 151.200,16.000 151.740,16.000 152.400 C 16.000 153.060,15.820 153.600,15.600 153.600 C 15.380 153.600,15.200 154.320,15.200 155.200 C 15.200 156.080,15.020 156.800,14.800 156.800 C 14.580 156.800,14.400 157.329,14.400 157.976 C 14.400 158.623,14.220 159.264,14.000 159.400 C 13.780 159.536,13.600 160.346,13.600 161.200 C 13.600 162.054,13.420 162.864,13.200 163.000 C 12.980 163.136,12.800 163.867,12.800 164.624 C 12.800 165.381,12.620 166.000,12.400 166.000 C 12.180 166.000,12.000 166.810,12.000 167.800 C 12.000 168.790,11.842 169.600,11.650 169.600 C 11.457 169.600,11.189 170.545,11.053 171.700 C 10.918 172.855,10.620 174.880,10.391 176.200 C 9.873 179.181,9.237 183.504,8.891 186.400 C 8.300 191.351,8.569 231.973,9.202 233.200 C 9.372 233.530,9.631 234.970,9.777 236.400 C 9.924 237.830,10.140 239.945,10.259 241.100 C 10.377 242.255,10.621 243.200,10.800 243.200 C 10.979 243.200,11.227 244.145,11.350 245.300 C 11.823 249.737,12.093 251.200,12.440 251.200 C 12.638 251.200,12.800 251.909,12.800 252.776 C 12.800 253.643,12.980 254.464,13.200 254.600 C 13.420 254.736,13.600 255.366,13.600 256.000 C 13.600 256.634,13.780 257.264,14.000 257.400 C 14.220 257.536,14.400 258.166,14.400 258.800 C 14.400 259.434,14.580 260.064,14.800 260.200 C 15.020 260.336,15.200 261.056,15.200 261.800 C 15.200 262.544,15.380 263.264,15.600 263.400 C 15.820 263.536,16.000 264.177,16.000 264.824 C 16.000 265.471,16.180 266.000,16.400 266.000 C 16.620 266.000,16.800 266.540,16.800 267.200 C 16.800 267.860,16.980 268.400,17.200 268.400 C 17.420 268.400,17.600 268.951,17.600 269.624 C 17.600 270.337,17.767 270.744,18.000 270.600 C 18.227 270.460,18.400 270.798,18.400 271.382 C 18.400 271.948,18.559 272.723,18.753 273.105 C 18.948 273.487,19.329 274.340,19.600 275.000 C 19.871 275.660,20.252 276.513,20.447 276.895 C 20.641 277.277,20.800 277.952,20.800 278.395 C 20.800 278.838,20.980 279.200,21.200 279.200 C 21.420 279.200,21.600 279.555,21.600 279.988 C 21.600 280.421,21.960 281.417,22.400 282.200 C 22.840 282.983,23.200 283.889,23.200 284.212 C 23.200 284.535,23.380 284.800,23.600 284.800 C 23.820 284.800,24.000 285.162,24.000 285.605 C 24.000 286.048,24.162 286.723,24.359 287.105 C 25.791 289.873,26.800 292.160,26.800 292.637 C 26.800 292.947,26.980 293.200,27.200 293.200 C 27.420 293.200,27.600 293.560,27.600 294.000 C 27.600 294.440,27.780 294.800,28.000 294.800 C 28.220 294.800,28.400 295.160,28.400 295.600 C 28.400 296.040,28.580 296.400,28.800 296.400 C 29.020 296.400,29.200 296.683,29.200 297.029 C 29.200 297.374,29.472 297.929,29.804 298.261 C 30.136 298.593,30.305 299.030,30.180 299.232 C 30.055 299.435,30.143 299.600,30.376 299.600 C 30.609 299.600,30.800 299.971,30.800 300.424 C 30.800 300.877,30.980 301.136,31.200 301.000 C 31.420 300.864,31.600 301.096,31.600 301.514 C 31.600 301.933,31.960 302.602,32.400 303.000 C 32.840 303.398,33.200 304.056,33.200 304.462 C 33.200 304.868,33.352 305.200,33.537 305.200 C 33.723 305.200,34.291 306.010,34.800 307.000 C 35.309 307.990,35.877 308.800,36.063 308.800 C 36.248 308.800,36.400 309.120,36.400 309.512 C 36.400 309.903,36.760 310.483,37.200 310.800 C 37.640 311.117,38.000 311.697,38.000 312.088 C 38.000 312.480,38.180 312.800,38.400 312.800 C 38.620 312.800,38.800 313.025,38.800 313.300 C 38.801 313.575,39.260 314.334,39.821 314.986 C 40.382 315.639,41.207 316.764,41.653 317.486 C 42.560 318.953,43.118 319.145,43.442 318.100 C 43.561 317.715,43.825 317.087,44.029 316.705 C 44.233 316.323,44.400 315.811,44.400 315.566 C 44.400 314.896,47.510 308.624,49.657 304.964 C 54.867 296.084,64.804 286.980,74.000 282.663 C 78.616 280.496,80.744 279.601,81.296 279.594 C 81.573 279.591,82.610 279.296,83.600 278.938 C 84.590 278.580,86.165 278.132,87.100 277.943 C 88.035 277.755,89.655 277.410,90.700 277.178 C 91.745 276.946,93.230 276.664,94.000 276.553 C 94.770 276.442,95.760 276.194,96.200 276.002 C 96.997 275.656,98.448 275.352,101.303 274.935 C 102.129 274.814,102.905 274.555,103.026 274.358 C 103.148 274.161,103.856 274.000,104.600 274.000 C 105.344 274.000,106.064 273.820,106.200 273.600 C 106.336 273.380,106.878 273.200,107.405 273.200 C 107.931 273.200,108.776 273.039,109.281 272.842 C 109.787 272.645,111.010 272.260,112.000 271.988 C 115.419 271.046,116.228 270.793,123.400 268.423 C 134.217 264.847,133.599 265.194,133.604 262.695 C 133.608 260.299,134.669 257.726,137.174 254.038 C 138.068 252.721,138.800 251.454,138.800 251.222 C 138.800 250.990,138.980 250.800,139.200 250.800 C 139.420 250.800,139.600 250.610,139.600 250.378 C 139.600 250.146,140.320 248.896,141.200 247.600 C 142.080 246.304,142.800 245.054,142.800 244.822 C 142.800 244.590,142.980 244.400,143.200 244.400 C 143.420 244.400,143.600 244.235,143.600 244.032 C 143.600 243.392,150.285 233.051,151.468 231.862 C 153.861 229.456,159.266 228.536,162.688 229.954 C 163.362 230.233,164.428 230.403,165.057 230.331 L 166.200 230.200 164.174 228.000 C 153.627 216.551,144.955 197.831,137.998 171.500 C 137.540 169.766,137.391 169.600,136.294 169.600 C 130.232 169.600,126.246 165.587,124.806 158.033 C 124.398 155.889,123.432 152.439,122.661 150.367 C 119.673 142.340,119.413 141.262,119.434 137.000 C 119.467 130.498,121.845 126.924,126.863 125.834 L 127.925 125.603 128.153 109.102 C 128.395 91.582,128.720 86.907,130.049 81.800 C 130.279 80.920,130.652 79.480,130.879 78.600 C 131.106 77.720,131.433 76.640,131.605 76.200 C 131.778 75.760,132.139 74.770,132.407 74.000 C 136.962 60.912,147.278 48.513,159.874 40.986 C 160.624 40.538,162.848 38.848,164.818 37.229 L 168.400 34.286 168.400 31.378 C 168.400 28.101,169.223 23.275,170.169 21.013 C 171.073 18.848,170.460 17.084,169.400 18.800 M230.405 19.700 C 230.408 19.975,230.767 21.337,231.202 22.726 C 231.638 24.115,232.209 27.312,232.471 29.830 L 232.948 34.409 235.343 36.505 C 236.660 37.657,238.112 38.932,238.569 39.338 C 239.026 39.744,240.210 40.548,241.200 41.123 C 242.190 41.699,243.060 42.312,243.133 42.485 C 243.207 42.658,243.488 42.800,243.758 42.800 C 244.028 42.800,244.599 43.115,245.026 43.500 C 245.453 43.885,246.845 44.993,248.119 45.962 C 257.421 53.040,265.586 64.704,269.145 76.000 C 272.350 86.172,272.800 90.392,272.800 110.301 L 272.800 125.449 274.733 125.944 C 278.030 126.789,280.165 129.168,281.566 133.560 C 282.649 136.954,281.847 141.114,278.202 151.000 C 277.472 152.980,276.577 156.203,276.213 158.161 C 274.883 165.318,271.811 168.598,265.598 169.496 L 263.492 169.800 262.560 173.400 C 260.816 180.140,264.293 204.888,268.831 218.027 C 269.254 219.251,269.600 220.636,269.600 221.103 C 269.600 221.570,269.760 222.052,269.956 222.173 C 270.151 222.294,270.412 222.979,270.534 223.696 C 270.656 224.413,270.946 225.855,271.178 226.900 C 272.700 233.752,273.072 236.159,273.633 242.800 C 274.200 249.514,274.199 252.448,273.627 258.600 C 273.361 261.460,273.111 264.592,273.072 265.559 L 273.000 267.318 277.000 268.613 C 279.200 269.325,282.350 270.305,284.000 270.791 C 285.650 271.276,287.413 271.837,287.919 272.037 C 288.424 272.237,289.269 272.400,289.795 272.400 C 290.322 272.400,290.852 272.560,290.973 272.756 C 291.094 272.951,291.779 273.209,292.496 273.327 C 294.669 273.687,296.158 274.042,297.000 274.403 C 297.440 274.591,298.340 274.837,299.000 274.948 C 299.660 275.060,301.010 275.353,302.000 275.600 C 302.990 275.848,304.610 276.211,305.600 276.407 C 306.590 276.603,308.255 276.952,309.300 277.182 C 314.253 278.272,315.074 278.451,316.105 278.664 C 316.713 278.790,317.308 279.051,317.429 279.246 C 317.549 279.441,318.076 279.600,318.600 279.600 C 319.124 279.600,319.664 279.780,319.800 280.000 C 319.936 280.220,320.315 280.400,320.643 280.400 C 320.970 280.400,322.941 281.201,325.021 282.179 C 338.447 288.496,349.624 300.539,355.296 314.800 C 355.514 315.350,355.852 316.113,356.047 316.495 C 356.241 316.877,356.400 317.451,356.400 317.771 C 356.400 318.773,357.229 318.920,358.031 318.059 C 358.454 317.605,358.800 317.091,358.801 316.917 C 358.801 316.743,359.341 315.970,360.000 315.200 C 360.659 314.430,361.199 313.575,361.199 313.300 C 361.200 313.025,361.380 312.800,361.600 312.800 C 361.820 312.800,362.000 312.480,362.000 312.088 C 362.000 311.697,362.360 311.117,362.800 310.800 C 363.240 310.483,363.600 309.969,363.600 309.659 C 363.600 309.348,363.925 308.803,364.322 308.447 C 364.719 308.091,365.281 307.215,365.571 306.500 C 365.860 305.785,366.255 305.200,366.449 305.200 C 366.642 305.200,366.800 304.868,366.800 304.462 C 366.800 304.056,367.160 303.398,367.600 303.000 C 368.040 302.602,368.400 301.944,368.400 301.538 C 368.400 301.132,368.580 300.800,368.800 300.800 C 369.020 300.800,369.200 300.530,369.200 300.200 C 369.200 299.870,369.380 299.600,369.600 299.600 C 369.820 299.600,370.000 299.240,370.000 298.800 C 370.000 298.360,370.180 298.000,370.400 298.000 C 370.620 298.000,370.800 297.640,370.800 297.200 C 370.800 296.760,370.980 296.400,371.200 296.400 C 371.420 296.400,371.600 296.040,371.600 295.600 C 371.600 295.160,371.780 294.800,372.000 294.800 C 372.220 294.800,372.400 294.440,372.400 294.000 C 372.400 293.560,372.610 293.200,372.867 293.200 C 373.123 293.200,373.223 293.089,373.087 292.954 C 372.952 292.819,373.372 291.713,374.021 290.498 C 374.669 289.282,375.200 287.852,375.200 287.320 C 375.200 286.777,375.375 286.461,375.600 286.600 C 375.827 286.740,376.000 286.404,376.000 285.824 C 376.000 285.261,376.180 284.800,376.400 284.800 C 376.620 284.800,376.800 284.535,376.800 284.212 C 376.800 283.889,377.160 282.983,377.600 282.200 C 378.040 281.417,378.400 280.421,378.400 279.988 C 378.400 279.555,378.580 279.200,378.800 279.200 C 379.020 279.200,379.200 278.761,379.200 278.224 C 379.200 277.687,379.380 277.136,379.600 277.000 C 379.820 276.864,380.000 276.403,380.000 275.976 C 380.000 275.549,380.180 275.200,380.400 275.200 C 380.620 275.200,380.800 274.761,380.800 274.224 C 380.800 273.687,380.980 273.136,381.200 273.000 C 381.420 272.864,381.600 272.213,381.600 271.553 C 381.600 270.855,381.767 270.456,382.000 270.600 C 382.233 270.744,382.400 270.337,382.400 269.624 C 382.400 268.951,382.580 268.400,382.800 268.400 C 383.020 268.400,383.200 267.860,383.200 267.200 C 383.200 266.540,383.341 266.000,383.513 266.000 C 383.685 266.000,383.864 265.540,383.910 264.979 C 383.957 264.417,384.176 263.619,384.397 263.205 C 384.619 262.791,384.800 262.001,384.800 261.450 C 384.800 260.898,384.980 260.336,385.200 260.200 C 385.420 260.064,385.600 259.434,385.600 258.800 C 385.600 258.166,385.780 257.536,386.000 257.400 C 386.220 257.264,386.400 256.634,386.400 256.000 C 386.400 255.366,386.580 254.736,386.800 254.600 C 387.020 254.464,387.200 253.658,387.200 252.810 C 387.200 251.961,387.370 251.207,387.579 251.133 C 387.787 251.060,388.001 250.134,388.054 249.077 C 388.108 248.019,388.298 247.063,388.476 246.953 C 388.654 246.843,388.800 245.953,388.800 244.976 C 388.800 243.999,388.963 243.200,389.163 243.200 C 389.363 243.200,389.623 242.255,389.741 241.100 C 389.860 239.945,390.076 237.830,390.223 236.400 C 390.369 234.970,390.628 233.530,390.798 233.200 C 391.284 232.258,391.400 227.505,391.400 208.600 C 391.400 189.695,391.284 184.942,390.798 184.000 C 390.628 183.670,390.381 182.320,390.250 181.000 C 390.118 179.680,389.821 177.430,389.590 176.000 C 389.359 174.570,389.070 172.590,388.946 171.600 C 388.823 170.610,388.560 169.629,388.361 169.420 C 388.163 169.211,388.000 168.356,388.000 167.520 C 388.000 166.684,387.820 166.000,387.600 166.000 C 387.380 166.000,387.200 165.291,387.200 164.424 C 387.200 163.557,387.020 162.736,386.800 162.600 C 386.580 162.464,386.400 161.744,386.400 161.000 C 386.400 160.256,386.220 159.536,386.000 159.400 C 385.780 159.264,385.600 158.623,385.600 157.976 C 385.600 157.329,385.420 156.800,385.200 156.800 C 384.980 156.800,384.800 156.069,384.800 155.176 C 384.800 154.196,384.642 153.651,384.400 153.800 C 384.167 153.944,384.000 153.545,384.000 152.847 C 384.000 152.187,383.820 151.536,383.600 151.400 C 383.380 151.264,383.200 150.623,383.200 149.976 C 383.200 149.329,383.020 148.800,382.800 148.800 C 382.580 148.800,382.400 148.260,382.400 147.600 C 382.400 146.940,382.220 146.400,382.000 146.400 C 381.780 146.400,381.600 145.849,381.600 145.176 C 381.600 144.463,381.433 144.056,381.200 144.200 C 380.967 144.344,380.800 143.937,380.800 143.224 C 380.800 142.551,380.620 142.000,380.400 142.000 C 380.180 142.000,380.000 141.561,380.000 141.024 C 380.000 140.487,379.820 139.936,379.600 139.800 C 379.380 139.664,379.200 139.203,379.200 138.776 C 379.200 138.349,379.020 138.000,378.800 138.000 C 378.580 138.000,378.400 137.460,378.400 136.800 C 378.400 136.140,378.220 135.600,378.000 135.600 C 377.780 135.600,377.600 135.240,377.600 134.800 C 377.600 134.360,377.420 134.000,377.200 134.000 C 376.980 134.000,376.800 133.651,376.800 133.224 C 376.800 132.797,376.620 132.336,376.400 132.200 C 376.180 132.064,376.000 131.513,376.000 130.976 C 376.000 130.439,375.820 130.000,375.600 130.000 C 375.380 130.000,375.200 129.735,375.200 129.412 C 375.200 129.089,374.853 128.206,374.428 127.450 C 374.004 126.695,373.764 125.969,373.895 125.838 C 374.026 125.707,373.923 125.600,373.667 125.600 C 373.410 125.600,373.200 125.240,373.200 124.800 C 373.200 124.360,373.020 124.000,372.800 124.000 C 372.580 124.000,372.400 123.640,372.400 123.200 C 372.400 122.760,372.220 122.400,372.000 122.400 C 371.780 122.400,371.600 122.055,371.600 121.633 C 371.600 121.212,371.465 120.807,371.300 120.733 C 370.868 120.541,369.200 117.228,369.200 116.562 C 369.200 116.253,369.032 116.000,368.827 116.000 C 368.622 116.000,368.340 115.641,368.201 115.202 C 368.062 114.764,367.734 114.172,367.474 113.887 C 366.714 113.057,366.000 111.660,366.000 111.005 C 366.000 110.672,365.820 110.400,365.600 110.400 C 365.380 110.400,365.200 110.170,365.200 109.888 C 365.200 109.607,364.840 109.117,364.400 108.800 C 363.960 108.483,363.600 107.943,363.600 107.600 C 363.600 107.257,363.240 106.717,362.800 106.400 C 362.360 106.083,362.000 105.503,362.000 105.112 C 362.000 104.720,361.820 104.400,361.600 104.400 C 361.380 104.400,361.200 104.080,361.200 103.688 C 361.200 103.297,360.840 102.717,360.400 102.400 C 359.960 102.083,359.600 101.585,359.600 101.294 C 359.600 101.002,359.150 100.314,358.600 99.764 C 358.050 99.214,357.600 98.536,357.600 98.257 C 357.600 97.979,357.195 97.316,356.700 96.785 C 356.205 96.253,355.800 95.697,355.800 95.547 C 355.800 95.398,355.305 94.720,354.700 94.041 C 354.095 93.362,353.600 92.698,353.600 92.564 C 353.600 92.430,353.060 91.817,352.400 91.200 C 351.740 90.583,351.197 89.926,351.194 89.740 C 351.190 89.553,350.290 88.419,349.194 87.221 C 348.097 86.022,347.200 84.887,347.200 84.699 C 347.200 84.510,346.120 83.296,344.800 82.000 C 343.480 80.704,342.400 79.540,342.400 79.411 C 342.400 78.856,332.179 68.400,331.636 68.400 C 331.479 68.400,330.951 67.860,330.463 67.200 C 329.975 66.540,329.391 66.000,329.166 66.000 C 328.940 66.000,327.696 64.920,326.400 63.600 C 325.104 62.280,323.932 61.200,323.795 61.200 C 323.659 61.200,322.888 60.579,322.083 59.819 C 321.278 59.060,320.165 58.209,319.610 57.927 C 319.054 57.646,318.133 56.962,317.561 56.408 C 316.990 55.853,316.289 55.346,316.004 55.281 C 315.719 55.215,314.989 54.630,314.382 53.981 C 313.775 53.331,313.031 52.800,312.728 52.800 C 312.425 52.800,311.917 52.440,311.600 52.000 C 311.283 51.560,310.791 51.200,310.508 51.200 C 310.225 51.200,309.472 50.705,308.835 50.100 C 308.198 49.495,306.624 48.372,305.338 47.604 C 304.052 46.836,302.651 45.891,302.225 45.504 C 301.798 45.117,301.213 44.800,300.925 44.800 C 300.636 44.800,300.400 44.655,300.400 44.478 C 300.400 44.300,298.600 43.293,296.400 42.239 C 294.200 41.186,292.400 40.161,292.400 39.962 C 292.400 39.763,292.040 39.600,291.600 39.600 C 291.160 39.600,290.800 39.420,290.800 39.200 C 290.800 38.980,290.530 38.800,290.200 38.800 C 289.870 38.800,289.600 38.620,289.600 38.400 C 289.600 38.180,289.240 38.000,288.800 38.000 C 288.360 38.000,288.000 37.820,288.000 37.600 C 288.000 37.380,287.766 37.200,287.480 37.200 C 286.744 37.200,284.807 36.259,284.803 35.900 C 284.801 35.735,284.440 35.600,284.000 35.600 C 283.560 35.600,283.200 35.420,283.200 35.200 C 283.200 34.980,282.840 34.800,282.400 34.800 C 281.960 34.800,281.600 34.620,281.600 34.400 C 281.600 34.180,281.240 34.000,280.800 34.000 C 280.360 34.000,280.000 33.820,280.000 33.600 C 280.000 33.380,279.651 33.200,279.224 33.200 C 278.797 33.200,278.336 33.020,278.200 32.800 C 278.064 32.580,277.513 32.400,276.976 32.400 C 276.439 32.400,276.000 32.220,276.000 32.000 C 276.000 31.780,275.747 31.600,275.438 31.600 C 274.953 31.600,273.680 31.048,270.705 29.550 C 270.323 29.357,269.648 29.200,269.205 29.200 C 268.762 29.200,268.400 29.020,268.400 28.800 C 268.400 28.580,267.950 28.400,267.400 28.400 C 266.850 28.400,266.400 28.220,266.400 28.000 C 266.400 27.780,265.961 27.600,265.424 27.600 C 264.887 27.600,264.336 27.420,264.200 27.200 C 264.064 26.980,263.543 26.800,263.043 26.800 C 262.543 26.800,262.008 26.675,261.855 26.522 C 261.702 26.369,261.357 26.211,261.088 26.172 C 260.820 26.132,259.739 25.807,258.686 25.450 C 257.633 25.092,256.228 24.800,255.562 24.800 C 254.858 24.800,254.456 24.633,254.600 24.400 C 254.747 24.162,254.271 24.000,253.424 24.000 C 252.641 24.000,252.000 23.820,252.000 23.600 C 252.000 23.380,251.269 23.200,250.376 23.200 C 249.396 23.200,248.851 23.042,249.000 22.800 C 249.147 22.562,248.679 22.400,247.847 22.400 C 247.077 22.400,246.336 22.220,246.200 22.000 C 246.064 21.780,245.254 21.600,244.400 21.600 C 243.546 21.600,242.736 21.420,242.600 21.200 C 242.464 20.980,241.643 20.800,240.776 20.800 C 239.909 20.800,239.200 20.620,239.200 20.400 C 239.200 20.180,238.210 20.000,237.000 20.000 C 235.790 20.000,234.800 19.820,234.800 19.600 C 234.800 19.380,233.810 19.200,232.600 19.200 C 231.104 19.200,230.402 19.360,230.405 19.700 " stroke="none" fill="#fbd440" fill-rule="evenodd"></path><path id="path4" d="M231.268 23.800 C 231.262 24.240,231.411 24.960,231.600 25.400 C 232.038 26.419,232.038 25.368,231.600 24.000 C 231.343 23.196,231.277 23.157,231.268 23.800 M232.158 30.639 C 232.197 34.032,232.267 34.328,233.200 35.020 C 234.161 35.733,234.176 35.734,233.600 35.027 C 233.266 34.617,232.804 32.674,232.558 30.645 L 232.117 27.000 232.158 30.639 M168.460 30.820 C 168.423 32.931,168.209 34.442,167.900 34.767 C 167.488 35.201,167.541 35.210,168.200 34.814 C 168.884 34.404,168.984 33.978,168.888 31.867 C 168.698 27.673,168.523 27.244,168.460 30.820 M163.200 38.511 C 162.430 39.220,161.350 40.117,160.800 40.505 C 160.250 40.892,160.731 40.713,161.868 40.106 C 163.005 39.499,163.860 38.926,163.767 38.834 C 163.674 38.741,163.897 38.335,164.261 37.932 C 165.296 36.789,164.742 37.091,163.200 38.511 M237.374 39.159 C 237.496 39.356,238.362 39.900,239.298 40.369 C 240.234 40.837,240.640 40.943,240.200 40.603 C 239.760 40.263,239.083 39.718,238.695 39.392 C 237.925 38.745,237.020 38.585,237.374 39.159 M244.456 43.566 C 244.975 43.987,245.477 44.255,245.571 44.161 C 245.776 43.957,244.344 42.831,243.856 42.813 C 243.666 42.806,243.936 43.145,244.456 43.566 M150.175 48.100 L 149.000 49.400 150.300 48.225 C 151.512 47.130,151.784 46.800,151.475 46.800 C 151.406 46.800,150.821 47.385,150.175 48.100 M250.171 47.897 C 250.815 48.609,251.430 49.104,251.538 48.996 C 251.645 48.888,251.658 48.755,251.567 48.700 C 251.475 48.645,250.860 48.151,250.200 47.601 L 249.000 46.603 250.171 47.897 M255.200 52.579 C 255.200 52.809,259.215 57.725,260.117 58.600 C 260.344 58.820,260.155 58.460,259.698 57.800 C 258.595 56.209,255.200 52.268,255.200 52.579 M262.839 62.976 C 263.301 63.759,263.756 64.400,263.850 64.400 C 264.134 64.400,262.836 62.069,262.402 61.801 C 262.180 61.664,262.377 62.193,262.839 62.976 M264.600 66.000 C 264.941 66.660,265.311 67.200,265.421 67.200 C 265.531 67.200,265.341 66.660,265.000 66.000 C 264.659 65.340,264.289 64.800,264.179 64.800 C 264.069 64.800,264.259 65.340,264.600 66.000 M265.634 67.800 C 265.634 68.020,265.978 68.830,266.400 69.600 C 266.822 70.370,267.166 70.820,267.166 70.600 C 267.166 70.380,266.822 69.570,266.400 68.800 C 265.978 68.030,265.634 67.580,265.634 67.800 M171.277 75.629 C 155.287 77.705,146.407 89.683,144.202 112.146 L 143.658 117.693 141.482 120.946 C 140.285 122.736,139.058 124.898,138.755 125.750 C 138.092 127.612,137.592 127.859,135.899 127.158 C 135.192 126.865,133.260 126.348,131.607 126.009 L 128.600 125.392 128.393 110.596 L 128.185 95.800 128.093 110.692 L 128.000 125.585 126.900 125.825 C 121.838 126.930,119.467 130.479,119.434 137.000 C 119.413 141.262,119.673 142.340,122.661 150.367 C 123.432 152.439,124.398 155.889,124.806 158.033 C 126.246 165.587,130.232 169.600,136.294 169.600 C 137.391 169.600,137.540 169.766,137.998 171.500 C 144.955 197.833,153.663 216.625,164.174 227.991 L 166.200 230.183 165.000 230.433 C 163.814 230.680,163.819 230.687,165.450 230.985 C 166.675 231.209,168.015 232.050,170.650 234.250 C 187.693 248.477,200.064 251.607,213.526 245.099 C 215.355 244.215,216.705 243.364,216.526 243.210 C 216.346 243.055,214.400 241.753,212.200 240.318 C 197.301 230.594,188.015 218.134,179.231 196.080 C 167.331 166.199,165.394 134.518,174.661 121.331 C 176.945 118.081,177.059 117.724,177.586 112.159 C 178.444 103.099,180.267 95.957,182.937 91.200 C 183.370 90.430,184.100 89.101,184.562 88.246 C 186.797 84.102,193.478 78.632,195.278 79.471 C 199.144 81.272,200.852 81.236,206.992 79.226 C 211.726 77.677,212.952 77.334,217.084 76.403 C 219.644 75.827,230.626 75.770,232.462 76.324 C 233.198 76.546,234.520 76.944,235.400 77.208 C 243.586 79.668,250.069 86.760,253.491 97.000 C 255.331 102.506,255.879 105.417,256.769 114.400 C 257.109 117.834,257.494 118.918,258.969 120.600 C 259.548 121.260,260.491 122.751,261.064 123.913 C 261.638 125.076,262.185 125.948,262.281 125.852 C 262.556 125.577,260.815 122.374,259.339 120.440 C 257.699 118.291,257.387 117.129,256.801 111.000 C 256.368 106.468,256.149 105.136,255.126 100.800 C 250.165 79.782,234.468 71.213,211.900 77.202 C 208.550 78.091,207.683 78.362,205.002 79.359 C 201.499 80.662,199.733 80.667,196.198 79.384 C 192.103 77.898,184.368 76.112,179.916 75.625 C 175.616 75.155,174.929 75.155,171.277 75.629 M271.473 86.400 C 271.604 87.390,271.776 88.275,271.856 88.367 C 272.157 88.714,271.928 86.164,271.590 85.400 C 271.353 84.866,271.314 85.198,271.473 86.400 M129.049 86.215 C 128.912 86.573,128.815 87.166,128.834 87.533 C 128.853 87.900,129.027 87.669,129.221 87.020 C 129.598 85.758,129.465 85.133,129.049 86.215 M272.200 107.776 L 272.200 125.351 269.400 125.865 C 267.860 126.147,265.904 126.690,265.054 127.071 C 263.567 127.737,263.487 127.734,262.954 127.005 C 262.203 125.977,262.253 126.783,263.039 128.359 C 265.910 134.113,266.164 162.200,263.410 169.243 C 263.187 169.812,263.422 169.844,265.464 169.524 C 271.909 168.513,274.872 165.381,276.213 158.161 C 276.577 156.203,277.472 152.980,278.202 151.000 C 281.847 141.114,282.649 136.954,281.566 133.560 C 280.165 129.168,278.030 126.789,274.733 125.944 L 272.800 125.449 272.765 109.824 C 272.746 101.231,272.611 93.300,272.465 92.200 C 272.319 91.100,272.200 98.109,272.200 107.776 M128.514 93.800 C 128.517 94.900,128.595 95.303,128.687 94.695 C 128.779 94.086,128.777 93.186,128.682 92.695 C 128.587 92.203,128.511 92.700,128.514 93.800 M262.673 171.353 C 262.523 171.745,262.411 172.366,262.425 172.733 C 262.442 173.175,262.581 173.074,262.837 172.434 C 263.049 171.903,263.161 171.282,263.085 171.054 C 263.009 170.827,262.824 170.961,262.673 171.353 M261.873 174.553 C 261.723 174.945,261.611 175.566,261.625 175.933 C 261.642 176.375,261.781 176.274,262.037 175.634 C 262.249 175.103,262.361 174.482,262.285 174.254 C 262.209 174.027,262.024 174.161,261.873 174.553 M261.100 177.029 C 260.935 177.196,260.800 177.833,260.800 178.443 C 260.800 179.053,260.620 179.664,260.400 179.800 C 260.180 179.936,260.015 180.442,260.034 180.924 C 260.059 181.572,260.273 181.353,260.859 180.078 C 261.599 178.466,261.766 176.352,261.100 177.029 M261.720 181.600 C 261.720 182.810,261.795 183.305,261.887 182.700 C 261.978 182.095,261.978 181.105,261.887 180.500 C 261.795 179.895,261.720 180.390,261.720 181.600 M259.473 182.553 C 259.323 182.945,259.211 183.566,259.225 183.933 C 259.242 184.375,259.381 184.274,259.637 183.634 C 259.849 183.103,259.961 182.482,259.885 182.254 C 259.809 182.027,259.624 182.161,259.473 182.553 M258.667 185.067 C 258.520 185.213,258.411 185.708,258.425 186.167 C 258.449 186.933,258.482 186.923,258.834 186.042 C 259.226 185.063,259.144 184.589,258.667 185.067 M257.867 187.467 C 257.720 187.613,257.611 188.108,257.625 188.567 C 257.649 189.333,257.682 189.323,258.034 188.442 C 258.426 187.463,258.344 186.989,257.867 187.467 M262.493 189.200 C 262.493 189.970,262.575 190.285,262.676 189.900 C 262.776 189.515,262.776 188.885,262.676 188.500 C 262.575 188.115,262.493 188.430,262.493 189.200 M256.980 190.243 C 256.849 190.659,256.575 191.313,256.371 191.695 C 256.167 192.077,256.000 192.664,256.000 193.000 C 256.000 193.336,255.835 193.923,255.634 194.305 C 255.254 195.025,254.550 196.646,253.420 199.400 C 252.074 202.679,251.353 204.273,249.532 207.987 C 248.505 210.083,247.738 211.871,247.827 211.960 C 248.025 212.158,253.492 200.767,254.817 197.394 C 256.349 193.497,257.577 189.843,257.411 189.677 C 257.305 189.572,257.111 189.826,256.980 190.243 M246.654 213.373 C 246.294 213.923,246.000 214.481,246.000 214.614 C 246.000 214.747,245.460 215.641,244.800 216.600 C 244.140 217.559,243.600 218.464,243.600 218.610 C 243.600 218.757,243.212 219.444,242.738 220.138 C 242.263 220.832,242.158 221.130,242.504 220.800 C 243.347 219.996,247.707 212.773,247.484 212.551 C 247.387 212.454,247.014 212.824,246.654 213.373 M240.648 222.827 C 239.940 224.025,237.129 227.220,233.682 230.743 C 232.738 231.708,232.040 232.573,232.131 232.664 C 232.222 232.755,233.849 231.181,235.747 229.165 C 239.228 225.467,242.264 221.600,241.686 221.600 C 241.513 221.600,241.046 222.152,240.648 222.827 M157.100 229.482 C 157.595 229.578,158.405 229.578,158.900 229.482 C 159.395 229.387,158.990 229.309,158.000 229.309 C 157.010 229.309,156.605 229.387,157.100 229.482 M153.767 230.114 C 152.555 230.821,151.086 232.087,150.417 233.003 C 150.097 233.441,150.461 233.219,151.227 232.509 C 151.992 231.799,153.335 230.862,154.209 230.425 C 155.084 229.989,155.530 229.631,155.200 229.630 C 154.870 229.629,154.225 229.847,153.767 230.114 M161.200 230.000 C 162.742 230.494,163.564 230.494,162.800 230.000 C 162.470 229.787,161.750 229.627,161.200 229.646 L 160.200 229.680 161.200 230.000 M272.262 233.400 C 272.396 234.280,272.572 235.075,272.653 235.167 C 272.956 235.510,272.729 233.368,272.381 232.600 C 272.129 232.042,272.093 232.285,272.262 233.400 M148.107 236.500 C 146.019 239.836,145.926 240.000,146.120 240.000 C 146.310 240.000,148.825 236.259,149.549 234.900 C 150.515 233.085,149.628 234.070,148.107 236.500 M273.328 240.800 C 273.328 242.230,273.401 242.815,273.489 242.100 C 273.578 241.385,273.578 240.215,273.489 239.500 C 273.401 238.785,273.328 239.370,273.328 240.800 M144.653 241.991 C 143.521 243.702,143.225 244.718,144.243 243.400 C 144.982 242.444,146.085 240.400,145.863 240.400 C 145.777 240.400,145.232 241.116,144.653 241.991 M142.800 244.822 C 142.800 245.054,142.064 246.328,141.164 247.653 C 140.264 248.978,139.606 250.140,139.702 250.235 C 139.797 250.330,140.409 249.552,141.061 248.504 C 141.713 247.457,142.572 246.105,142.969 245.500 C 143.392 244.856,143.507 244.400,143.246 244.400 C 143.001 244.400,142.800 244.590,142.800 244.822 M273.709 246.800 C 273.709 247.790,273.787 248.195,273.882 247.700 C 273.978 247.205,273.978 246.395,273.882 245.900 C 273.787 245.405,273.709 245.810,273.709 246.800 M274.101 251.000 C 274.105 251.880,274.187 252.193,274.283 251.695 C 274.379 251.198,274.375 250.478,274.275 250.095 C 274.175 249.713,274.096 250.120,274.101 251.000 M138.800 251.222 C 138.800 251.454,138.068 252.721,137.174 254.038 C 134.669 257.726,133.608 260.299,133.604 262.695 C 133.600 264.736,133.562 264.805,132.100 265.416 C 130.444 266.108,117.648 270.382,114.800 271.195 C 113.810 271.477,112.370 271.887,111.600 272.105 C 110.830 272.324,109.787 272.659,109.281 272.851 C 108.776 273.043,107.931 273.200,107.405 273.200 C 106.878 273.200,106.332 273.387,106.190 273.616 C 105.874 274.127,106.670 273.952,113.000 272.120 C 115.640 271.356,118.340 270.590,119.000 270.417 C 120.259 270.088,127.978 267.431,131.400 266.149 C 133.844 265.234,133.982 265.057,134.011 262.800 C 134.047 260.071,135.100 257.755,138.966 251.900 C 139.389 251.259,139.506 250.800,139.246 250.800 C 139.001 250.800,138.800 250.990,138.800 251.222 M273.701 254.600 C 273.705 255.480,273.787 255.793,273.883 255.295 C 273.979 254.798,273.975 254.078,273.875 253.695 C 273.775 253.313,273.696 253.720,273.701 254.600 M273.270 260.000 C 273.226 261.210,273.096 262.650,272.983 263.200 L 272.777 264.200 273.206 263.218 C 273.442 262.678,273.571 261.238,273.493 260.018 L 273.351 257.800 273.270 260.000 M272.425 266.673 C 272.401 267.518,273.766 268.367,274.297 267.837 C 274.427 267.706,274.228 267.600,273.854 267.600 C 273.480 267.600,273.011 267.195,272.812 266.700 L 272.451 265.800 272.425 266.673 M274.805 268.138 C 275.121 268.455,281.077 270.402,281.671 270.383 C 281.962 270.374,280.940 269.933,279.400 269.403 C 276.235 268.315,274.505 267.838,274.805 268.138 M282.800 270.741 C 283.130 270.934,283.940 271.209,284.600 271.352 C 285.368 271.518,285.584 271.484,285.200 271.259 C 284.870 271.066,284.060 270.791,283.400 270.648 C 282.632 270.482,282.416 270.516,282.800 270.741 M286.033 271.744 C 286.125 271.823,286.740 272.008,287.400 272.156 C 288.276 272.352,288.438 272.315,288.000 272.018 C 287.460 271.653,285.632 271.398,286.033 271.744 M288.833 272.544 C 289.305 272.950,291.243 273.193,291.010 272.816 C 290.868 272.587,290.283 272.400,289.710 272.400 C 289.136 272.400,288.742 272.465,288.833 272.544 M292.033 273.344 C 292.125 273.423,292.740 273.608,293.400 273.756 C 294.276 273.952,294.438 273.915,294.000 273.618 C 293.460 273.253,291.632 272.998,292.033 273.344 M103.000 274.400 C 102.716 274.860,103.364 274.860,104.800 274.400 C 105.755 274.094,105.743 274.078,104.524 274.040 C 103.822 274.018,103.136 274.180,103.000 274.400 M294.833 274.144 C 295.305 274.550,297.243 274.793,297.010 274.416 C 296.868 274.187,296.283 274.000,295.710 274.000 C 295.136 274.000,294.742 274.065,294.833 274.144 M99.600 275.200 C 98.842 275.690,100.070 275.690,101.600 275.200 C 102.580 274.886,102.576 274.879,101.400 274.846 C 100.740 274.827,99.930 274.987,99.600 275.200 M299.000 275.200 C 300.196 275.714,301.195 275.714,300.400 275.200 C 300.070 274.987,299.440 274.822,299.000 274.834 L 298.200 274.856 299.000 275.200 M96.200 276.000 C 95.916 276.460,96.564 276.460,98.000 276.000 C 98.955 275.694,98.943 275.678,97.724 275.640 C 97.022 275.618,96.336 275.780,96.200 276.000 M301.633 275.744 C 301.725 275.823,302.340 276.008,303.000 276.156 C 303.876 276.352,304.038 276.315,303.600 276.018 C 303.060 275.653,301.232 275.398,301.633 275.744 M92.400 276.800 C 91.642 277.290,92.870 277.290,94.400 276.800 C 95.380 276.486,95.376 276.479,94.200 276.446 C 93.540 276.427,92.730 276.587,92.400 276.800 M306.000 276.800 C 307.542 277.294,308.364 277.294,307.600 276.800 C 307.270 276.587,306.550 276.427,306.000 276.446 L 305.000 276.480 306.000 276.800 M88.800 277.621 C 88.370 277.914,88.654 277.954,89.800 277.762 C 91.784 277.430,92.104 277.198,90.567 277.206 C 89.925 277.209,89.130 277.396,88.800 277.621 M309.233 277.344 C 309.325 277.423,309.940 277.608,310.600 277.756 C 311.476 277.952,311.638 277.915,311.200 277.618 C 310.660 277.253,308.832 276.998,309.233 277.344 M85.200 278.400 C 84.436 278.894,85.258 278.894,86.800 278.400 L 87.800 278.080 86.800 278.046 C 86.250 278.027,85.530 278.187,85.200 278.400 M312.833 278.144 C 312.925 278.223,313.540 278.408,314.200 278.556 C 315.076 278.752,315.238 278.715,314.800 278.418 C 314.260 278.053,312.432 277.798,312.833 278.144 M82.800 279.200 C 82.267 279.545,82.267 279.588,82.800 279.588 C 83.130 279.588,83.670 279.413,84.000 279.200 C 84.533 278.855,84.533 278.812,84.000 278.812 C 83.670 278.812,83.130 278.987,82.800 279.200 M79.253 280.253 C 77.189 281.154,77.987 281.282,80.224 280.409 C 81.311 279.985,81.840 279.644,81.400 279.651 C 80.960 279.659,79.994 279.930,79.253 280.253 M72.903 283.178 C 63.288 288.282,54.771 296.284,49.557 305.111 C 48.459 306.971,47.645 308.579,47.750 308.684 C 47.855 308.789,48.252 308.273,48.632 307.537 C 53.689 297.745,63.132 288.648,73.919 283.175 C 76.054 282.093,77.530 281.209,77.200 281.211 C 76.870 281.213,74.937 282.098,72.903 283.178 M324.433 282.133 C 324.525 282.206,326.040 283.019,327.800 283.939 C 329.560 284.858,330.640 285.324,330.200 284.973 C 329.329 284.279,324.995 282.000,324.545 282.000 C 324.392 282.000,324.342 282.060,324.433 282.133 M332.000 286.119 C 332.000 286.342,337.956 290.800,338.254 290.800 C 338.368 290.800,337.953 290.386,337.331 289.880 C 335.478 288.371,332.000 285.918,332.000 286.119 M341.600 294.200 C 342.346 294.970,343.047 295.600,343.157 295.600 C 343.267 295.600,342.746 294.970,342.000 294.200 C 341.254 293.430,340.553 292.800,340.443 292.800 C 340.333 292.800,340.854 293.430,341.600 294.200 M344.412 297.069 C 344.419 297.251,345.094 298.128,345.912 299.018 C 347.475 300.717,347.289 300.313,345.476 298.069 C 344.884 297.337,344.405 296.887,344.412 297.069 M45.429 312.974 C 44.863 314.211,44.408 315.443,44.418 315.712 C 44.428 315.980,44.970 315.047,45.622 313.637 C 46.274 312.228,46.729 310.996,46.633 310.899 C 46.537 310.803,45.995 311.737,45.429 312.974 " stroke="none" fill="#fbac7c" fill-rule="evenodd"></path></g></svg>