<svg id="svg" version="1.1" xmlns="http://www.w3.org/2000/svg" xmlns:xlink="http://www.w3.org/1999/xlink" width="400" height="400" viewBox="0, 0, 400,400"><g id="svgg"><path id="path0" d="M86.000 258.645 C 71.578 261.777,62.467 270.931,58.574 286.200 C 58.088 288.106,57.731 341.309,58.200 341.926 C 59.197 343.239,67.648 351.600,67.978 351.600 C 68.181 351.600,69.271 352.500,70.400 353.600 C 71.529 354.700,72.602 355.600,72.784 355.600 C 72.966 355.600,73.671 356.095,74.349 356.700 C 76.312 358.449,76.752 358.800,76.987 358.800 C 77.108 358.800,77.772 359.340,78.463 360.000 C 79.154 360.660,79.874 361.200,80.063 361.200 C 80.252 361.200,80.972 361.740,81.663 362.400 C 82.354 363.060,83.122 363.600,83.371 363.600 C 83.620 363.600,84.083 363.960,84.400 364.400 C 84.717 364.840,85.257 365.200,85.600 365.200 C 85.943 365.200,86.483 365.560,86.800 366.000 C 87.117 366.440,87.657 366.800,88.000 366.800 C 88.343 366.800,88.883 367.160,89.200 367.600 C 89.517 368.040,90.057 368.400,90.400 368.400 C 90.743 368.400,91.283 368.760,91.600 369.200 C 91.917 369.640,92.329 370.000,92.516 370.000 C 92.703 370.000,93.641 370.540,94.600 371.200 C 95.559 371.860,96.522 372.400,96.739 372.400 C 96.956 372.400,97.193 372.535,97.267 372.700 C 97.477 373.174,101.438 375.200,102.154 375.200 C 102.509 375.200,102.800 375.380,102.800 375.600 C 102.800 375.820,103.036 376.000,103.325 376.000 C 103.613 376.000,104.236 376.360,104.708 376.800 C 105.180 377.240,105.844 377.600,106.183 377.600 C 106.522 377.600,106.800 377.780,106.800 378.000 C 106.800 378.220,107.160 378.400,107.600 378.400 C 108.040 378.400,108.400 378.546,108.400 378.725 C 108.400 378.904,109.030 379.298,109.800 379.600 C 110.570 379.902,111.200 380.296,111.200 380.475 C 111.200 380.654,111.560 380.800,112.000 380.800 C 112.440 380.800,112.800 380.980,112.800 381.200 C 112.800 381.420,113.149 381.600,113.576 381.600 C 114.003 381.600,114.464 381.780,114.600 382.000 C 114.736 382.220,115.287 382.400,115.824 382.400 C 116.361 382.400,116.800 382.580,116.800 382.800 C 116.800 383.020,117.160 383.200,117.600 383.200 C 118.040 383.200,118.400 383.380,118.400 383.600 C 118.400 383.820,118.760 384.000,119.200 384.000 C 119.640 384.000,120.000 384.180,120.000 384.400 C 120.000 384.620,120.360 384.800,120.800 384.800 C 121.240 384.800,121.600 384.980,121.600 385.200 C 121.600 385.420,122.140 385.600,122.800 385.600 C 123.460 385.600,124.000 385.780,124.000 386.000 C 124.000 386.220,124.272 386.400,124.605 386.400 C 124.938 386.400,125.568 386.580,126.005 386.800 C 126.442 387.020,127.158 387.380,127.595 387.600 C 128.032 387.820,128.978 388.000,129.698 388.000 C 130.574 388.000,131.173 388.265,131.507 388.800 C 131.782 389.240,132.230 389.597,132.503 389.594 C 132.830 389.590,132.795 389.455,132.400 389.200 C 131.887 388.869,131.902 388.811,132.500 388.806 C 132.885 388.803,133.200 388.980,133.200 389.200 C 133.200 389.420,133.661 389.600,134.224 389.600 C 134.787 389.600,135.147 389.762,135.025 389.959 C 134.903 390.157,135.525 390.292,136.406 390.259 C 137.453 390.221,137.949 390.357,137.836 390.652 C 137.720 390.954,138.116 391.043,139.031 390.919 C 139.860 390.808,140.400 390.906,140.400 391.167 C 140.400 391.405,140.940 391.600,141.600 391.600 C 142.260 391.600,142.800 391.780,142.800 392.000 C 142.800 392.220,143.430 392.400,144.200 392.400 C 144.970 392.400,145.600 392.580,145.600 392.800 C 145.600 393.020,146.230 393.200,147.000 393.200 C 147.770 393.200,148.400 393.380,148.400 393.600 C 148.400 393.820,149.120 394.000,150.000 394.000 C 150.880 394.000,151.600 394.180,151.600 394.400 C 151.600 394.620,152.320 394.800,153.200 394.800 C 154.080 394.800,154.800 394.980,154.800 395.200 C 154.800 395.420,155.070 395.600,155.400 395.600 C 155.931 395.600,156.000 387.689,156.000 326.800 L 156.000 258.000 122.300 258.040 C 94.894 258.073,88.114 258.186,86.000 258.645 M243.606 326.300 C 243.612 396.254,243.613 396.273,245.182 395.300 C 245.626 395.025,246.622 394.800,247.395 394.800 C 248.168 394.800,248.800 394.620,248.800 394.400 C 248.800 394.180,249.430 394.000,250.200 394.000 C 250.970 394.000,251.600 393.820,251.600 393.600 C 251.600 393.380,251.960 393.200,252.400 393.200 C 252.840 393.200,253.200 393.408,253.200 393.661 C 253.200 393.915,253.536 393.735,253.947 393.261 C 254.415 392.722,255.162 392.400,255.947 392.400 C 256.636 392.400,257.200 392.220,257.200 392.000 C 257.200 391.780,257.729 391.600,258.376 391.600 C 259.023 391.600,259.673 391.405,259.820 391.168 C 259.967 390.930,260.499 390.838,261.002 390.965 C 261.624 391.121,261.995 390.990,262.162 390.555 C 262.334 390.106,262.697 389.988,263.379 390.159 C 263.914 390.293,264.463 390.222,264.599 390.001 C 264.736 389.781,265.387 389.600,266.047 389.600 C 266.745 389.600,267.144 389.433,267.000 389.200 C 266.855 388.966,267.270 388.800,268.000 388.800 C 268.730 388.800,269.145 388.634,269.000 388.400 C 268.851 388.159,269.388 388.000,270.353 388.000 C 271.233 388.000,272.064 387.820,272.200 387.600 C 272.336 387.380,272.887 387.200,273.424 387.200 C 273.961 387.200,274.400 387.020,274.400 386.800 C 274.400 386.580,274.760 386.400,275.200 386.400 C 275.640 386.400,276.000 386.220,276.000 386.000 C 276.000 385.780,276.540 385.600,277.200 385.600 C 277.860 385.600,278.400 385.420,278.400 385.200 C 278.400 384.980,278.760 384.800,279.200 384.800 C 279.640 384.800,280.000 384.620,280.000 384.400 C 280.000 384.180,280.360 384.000,280.800 384.000 C 281.240 384.000,281.600 383.820,281.600 383.600 C 281.600 383.380,281.949 383.200,282.376 383.200 C 282.803 383.200,283.264 383.020,283.400 382.800 C 283.536 382.580,284.087 382.400,284.624 382.400 C 285.161 382.400,285.600 382.220,285.600 382.000 C 285.600 381.780,285.960 381.600,286.400 381.600 C 286.840 381.600,287.200 381.420,287.200 381.200 C 287.200 380.980,287.560 380.800,288.000 380.800 C 288.440 380.800,288.800 380.654,288.800 380.475 C 288.800 380.296,289.430 379.902,290.200 379.600 C 290.970 379.298,291.600 378.904,291.600 378.725 C 291.600 378.546,291.960 378.400,292.400 378.400 C 292.840 378.400,293.200 378.220,293.200 378.000 C 293.200 377.780,293.560 377.600,294.000 377.600 C 294.440 377.600,294.800 377.420,294.800 377.200 C 294.800 376.980,295.036 376.800,295.325 376.800 C 295.613 376.800,296.236 376.440,296.708 376.000 C 297.180 375.560,297.760 375.200,297.997 375.200 C 298.629 375.200,302.578 373.157,302.733 372.749 C 302.807 372.557,303.044 372.400,303.261 372.400 C 303.478 372.400,304.441 371.860,305.400 371.200 C 306.359 370.540,307.297 370.000,307.484 370.000 C 307.671 370.000,308.083 369.640,308.400 369.200 C 308.717 368.760,309.257 368.400,309.600 368.400 C 309.943 368.400,310.483 368.040,310.800 367.600 C 311.117 367.160,311.657 366.800,312.000 366.800 C 312.343 366.800,312.883 366.440,313.200 366.000 C 313.517 365.560,314.057 365.200,314.400 365.200 C 314.743 365.200,315.283 364.840,315.600 364.400 C 315.917 363.960,316.380 363.600,316.629 363.600 C 316.878 363.600,317.646 363.060,318.337 362.400 C 319.028 361.740,319.748 361.200,319.937 361.200 C 320.126 361.200,320.846 360.660,321.537 360.000 C 322.228 359.340,322.892 358.800,323.013 358.800 C 323.248 358.800,323.688 358.449,325.651 356.700 C 326.329 356.095,327.034 355.600,327.216 355.600 C 327.398 355.600,328.471 354.700,329.600 353.600 C 330.729 352.500,331.819 351.600,332.022 351.600 C 332.352 351.600,340.803 343.239,341.800 341.926 C 342.731 340.701,341.889 287.381,340.882 283.800 C 337.118 270.417,326.587 260.822,313.027 258.420 C 311.493 258.149,298.790 258.000,277.127 258.000 L 243.600 258.000 243.606 326.300 " stroke="none" fill="#2a5d81" fill-rule="evenodd"></path><path id="path1" d="M178.500 0.276 C 176.465 0.361,174.800 0.603,174.800 0.815 C 174.800 1.027,173.464 1.200,171.824 1.200 C 170.187 1.200,168.736 1.380,168.600 1.600 C 168.464 1.820,167.589 2.000,166.656 2.000 C 165.723 2.000,164.789 2.163,164.580 2.361 C 164.371 2.560,163.345 2.830,162.300 2.961 C 157.519 3.562,156.800 3.703,156.800 4.040 C 156.800 4.238,155.900 4.400,154.800 4.400 C 153.700 4.400,152.800 4.580,152.800 4.800 C 152.800 5.020,152.181 5.200,151.424 5.200 C 150.667 5.200,149.936 5.380,149.800 5.600 C 149.664 5.820,149.034 6.000,148.400 6.000 C 147.766 6.000,147.136 6.180,147.000 6.400 C 146.864 6.620,146.234 6.800,145.600 6.800 C 144.966 6.800,144.336 6.980,144.200 7.200 C 144.064 7.420,143.333 7.600,142.576 7.600 C 141.819 7.600,141.200 7.760,141.200 7.956 C 141.200 8.152,140.615 8.406,139.900 8.520 C 139.185 8.635,138.330 8.806,138.000 8.902 C 137.670 8.997,136.860 9.207,136.200 9.369 C 135.035 9.654,134.495 9.843,132.400 10.704 C 128.883 12.147,126.999 12.800,126.347 12.800 C 125.936 12.800,125.600 12.980,125.600 13.200 C 125.600 13.420,125.240 13.600,124.800 13.600 C 124.360 13.600,124.000 13.780,124.000 14.000 C 124.000 14.220,123.550 14.400,123.000 14.400 C 122.450 14.400,122.000 14.580,122.000 14.800 C 122.000 15.020,121.550 15.200,121.000 15.200 C 120.450 15.200,120.000 15.380,120.000 15.600 C 120.000 15.820,119.640 16.000,119.200 16.000 C 118.760 16.000,118.400 16.180,118.400 16.400 C 118.400 16.620,118.040 16.800,117.600 16.800 C 117.160 16.800,116.800 16.980,116.800 17.200 C 116.800 17.420,116.485 17.601,116.100 17.601 C 115.715 17.602,114.811 17.962,114.090 18.401 C 113.370 18.841,112.515 19.200,112.190 19.200 C 111.866 19.200,111.600 19.380,111.600 19.600 C 111.600 19.820,111.366 20.000,111.080 20.000 C 110.344 20.000,108.407 20.941,108.403 21.300 C 108.401 21.465,108.040 21.600,107.600 21.600 C 107.160 21.600,106.800 21.780,106.800 22.000 C 106.800 22.220,106.440 22.400,106.000 22.400 C 105.560 22.400,105.200 22.580,105.200 22.800 C 105.200 23.020,104.829 23.200,104.376 23.200 C 103.923 23.200,103.664 23.380,103.800 23.600 C 103.936 23.820,103.767 24.000,103.424 24.000 C 103.081 24.000,102.800 24.180,102.800 24.400 C 102.800 24.620,102.440 24.800,102.000 24.800 C 101.560 24.800,101.200 24.980,101.200 25.200 C 101.200 25.420,101.065 25.579,100.900 25.553 C 100.187 25.440,99.666 25.649,98.810 26.392 C 98.308 26.827,97.740 27.087,97.548 26.968 C 97.357 26.850,97.200 26.922,97.200 27.128 C 97.200 27.334,96.660 27.727,96.000 28.000 C 95.340 28.273,94.800 28.655,94.800 28.849 C 94.800 29.042,94.530 29.200,94.200 29.200 C 93.870 29.200,93.600 29.380,93.600 29.600 C 93.600 29.820,93.306 30.000,92.947 30.000 C 92.588 30.000,92.003 30.316,91.647 30.703 C 91.291 31.089,90.505 31.660,89.900 31.970 C 89.295 32.281,88.800 32.685,88.800 32.868 C 88.800 33.050,88.480 33.200,88.088 33.200 C 87.697 33.200,87.117 33.560,86.800 34.000 C 86.483 34.440,85.991 34.800,85.708 34.800 C 85.425 34.800,84.628 35.340,83.937 36.000 C 83.246 36.660,82.478 37.200,82.229 37.200 C 81.980 37.200,81.517 37.560,81.200 38.000 C 80.883 38.440,80.293 38.800,79.888 38.800 C 79.484 38.800,79.264 38.980,79.400 39.200 C 79.536 39.420,79.406 39.600,79.112 39.600 C 78.817 39.600,78.317 39.960,78.000 40.400 C 77.683 40.840,77.259 41.200,77.059 41.200 C 76.858 41.200,76.358 41.588,75.947 42.061 C 75.536 42.535,75.200 42.803,75.200 42.658 C 75.200 42.512,74.633 42.935,73.941 43.597 C 73.248 44.258,72.523 44.800,72.330 44.800 C 72.137 44.800,71.198 45.565,70.244 46.500 C 68.282 48.422,66.891 49.600,66.581 49.600 C 66.466 49.600,64.573 51.445,62.373 53.700 C 57.566 58.628,58.628 57.566,53.700 62.373 C 51.445 64.573,49.600 66.659,49.600 67.010 C 49.600 67.360,49.420 67.536,49.200 67.400 C 48.980 67.264,48.800 67.325,48.800 67.536 C 48.800 67.747,47.900 68.838,46.800 69.961 C 45.700 71.085,44.800 72.156,44.800 72.343 C 44.800 72.529,44.258 73.248,43.597 73.941 C 42.935 74.633,42.483 75.200,42.593 75.200 C 42.823 75.200,41.803 76.483,40.500 77.832 C 40.005 78.344,39.600 78.962,39.600 79.205 C 39.600 79.448,39.420 79.536,39.200 79.400 C 38.980 79.264,38.800 79.484,38.800 79.888 C 38.800 80.293,38.440 80.883,38.000 81.200 C 37.560 81.517,37.200 82.057,37.200 82.400 C 37.200 82.743,36.840 83.283,36.400 83.600 C 35.960 83.917,35.600 84.417,35.600 84.712 C 35.600 85.015,35.399 85.123,35.138 84.962 C 34.862 84.791,34.785 84.851,34.946 85.112 C 35.094 85.352,34.762 86.002,34.208 86.556 C 33.653 87.110,33.200 87.842,33.200 88.182 C 33.200 88.522,33.032 88.800,32.827 88.800 C 32.622 88.800,32.338 89.166,32.196 89.613 C 32.054 90.060,31.502 90.862,30.969 91.395 C 30.436 91.928,30.000 92.642,30.000 92.982 C 30.000 93.322,29.820 93.600,29.600 93.600 C 29.380 93.600,29.200 93.788,29.200 94.017 C 29.200 94.246,28.840 94.820,28.400 95.292 C 27.960 95.764,27.600 96.387,27.600 96.675 C 27.600 96.964,27.390 97.200,27.133 97.200 C 26.877 97.200,26.771 97.305,26.899 97.433 C 27.027 97.560,26.700 98.302,26.172 99.080 C 25.643 99.858,25.309 100.653,25.429 100.847 C 25.549 101.041,25.457 101.200,25.224 101.200 C 24.991 101.200,24.800 101.560,24.800 102.000 C 24.800 102.440,24.620 102.800,24.400 102.800 C 24.180 102.800,24.000 103.078,24.000 103.417 C 24.000 103.756,23.640 104.420,23.200 104.892 C 22.760 105.364,22.400 105.987,22.400 106.275 C 22.400 106.564,22.220 106.800,22.000 106.800 C 21.780 106.800,21.600 107.160,21.600 107.600 C 21.600 108.040,21.465 108.401,21.300 108.403 C 20.941 108.407,20.000 110.344,20.000 111.080 C 20.000 111.366,19.820 111.600,19.600 111.600 C 19.380 111.600,19.200 111.853,19.200 112.162 C 19.200 112.828,17.532 116.141,17.100 116.333 C 16.935 116.407,16.800 116.902,16.800 117.433 C 16.800 117.965,16.620 118.400,16.400 118.400 C 16.180 118.400,16.000 118.745,16.000 119.167 C 16.000 119.588,15.822 119.993,15.603 120.067 C 15.385 120.140,15.166 120.695,15.116 121.300 C 15.066 121.905,14.885 122.400,14.713 122.400 C 14.541 122.400,14.400 122.760,14.400 123.200 C 14.400 123.640,14.220 124.000,14.000 124.000 C 13.780 124.000,13.600 124.360,13.600 124.800 C 13.600 125.240,13.440 125.600,13.245 125.600 C 13.050 125.600,12.804 126.095,12.698 126.700 C 12.437 128.192,11.071 131.768,10.700 131.933 C 10.535 132.007,10.400 132.414,10.400 132.839 C 10.400 133.263,10.231 133.923,10.024 134.305 C 9.555 135.172,9.044 137.244,9.145 137.870 C 9.187 138.128,9.036 138.454,8.811 138.593 C 8.585 138.733,8.400 139.366,8.400 140.000 C 8.400 140.634,8.220 141.264,8.000 141.400 C 7.780 141.536,7.600 142.166,7.600 142.800 C 7.600 143.434,7.420 144.064,7.200 144.200 C 6.980 144.336,6.800 144.977,6.800 145.624 C 6.800 146.271,6.620 146.800,6.400 146.800 C 6.180 146.800,6.000 147.430,6.000 148.200 C 6.000 148.970,5.820 149.600,5.600 149.600 C 5.380 149.600,5.200 150.320,5.200 151.200 C 5.200 152.080,5.020 152.800,4.800 152.800 C 4.580 152.800,4.400 153.509,4.400 154.376 C 4.400 155.243,4.220 156.064,4.000 156.200 C 3.780 156.336,3.600 157.236,3.600 158.200 C 3.600 159.164,3.420 160.064,3.200 160.200 C 2.980 160.336,2.800 161.247,2.800 162.224 C 2.800 163.201,2.620 164.000,2.400 164.000 C 2.175 164.000,2.000 165.125,2.000 166.576 C 2.000 167.993,1.820 169.264,1.600 169.400 C 1.380 169.536,1.200 170.681,1.200 171.944 C 1.200 173.207,0.984 174.456,0.719 174.721 C 0.044 175.396,-0.229 213.478,0.392 220.400 C 0.638 223.150,0.936 226.615,1.053 228.100 C 1.170 229.585,1.431 230.800,1.633 230.800 C 1.835 230.800,2.000 231.779,2.000 232.976 C 2.000 234.173,2.180 235.264,2.400 235.400 C 2.620 235.536,2.800 236.526,2.800 237.600 C 2.800 238.674,2.980 239.664,3.200 239.800 C 3.420 239.936,3.600 240.836,3.600 241.800 C 3.600 242.764,3.780 243.664,4.000 243.800 C 4.220 243.936,4.400 244.656,4.400 245.400 C 4.400 246.144,4.580 246.864,4.800 247.000 C 5.020 247.136,5.200 247.957,5.200 248.824 C 5.200 249.691,5.380 250.400,5.600 250.400 C 5.820 250.400,6.000 251.030,6.000 251.800 C 6.000 252.570,6.180 253.200,6.400 253.200 C 6.620 253.200,6.800 253.729,6.800 254.376 C 6.800 255.023,6.980 255.664,7.200 255.800 C 7.420 255.936,7.600 256.566,7.600 257.200 C 7.600 257.834,7.780 258.464,8.000 258.600 C 8.220 258.736,8.400 259.377,8.400 260.024 C 8.400 260.671,8.578 261.200,8.796 261.200 C 9.013 261.200,9.187 261.605,9.183 262.100 C 9.169 263.584,9.666 265.600,10.045 265.600 C 10.240 265.600,10.400 265.962,10.400 266.405 C 10.400 266.848,10.564 267.523,10.764 267.905 C 11.540 269.387,12.800 272.943,12.800 273.653 C 12.800 274.064,12.980 274.400,13.200 274.400 C 13.420 274.400,13.600 274.760,13.600 275.200 C 13.600 275.640,13.780 276.000,14.000 276.000 C 14.220 276.000,14.400 276.360,14.400 276.800 C 14.400 277.240,14.591 277.600,14.824 277.600 C 15.057 277.600,15.156 277.748,15.044 277.929 C 14.932 278.109,15.102 278.760,15.420 279.374 C 15.739 279.989,16.000 280.741,16.000 281.046 C 16.000 281.351,16.180 281.600,16.400 281.600 C 16.620 281.600,16.800 281.872,16.800 282.205 C 16.800 282.903,17.612 284.462,18.200 284.894 C 18.420 285.056,18.444 285.191,18.254 285.194 C 18.064 285.197,18.199 285.644,18.554 286.186 C 18.909 286.728,19.200 287.448,19.200 287.786 C 19.200 288.124,19.380 288.400,19.600 288.400 C 19.820 288.400,20.000 288.760,20.000 289.200 C 20.000 289.640,20.180 290.000,20.400 290.000 C 20.620 290.000,20.800 290.360,20.800 290.800 C 20.800 291.240,20.980 291.600,21.200 291.600 C 21.420 291.600,21.600 291.960,21.600 292.400 C 21.600 292.840,21.780 293.200,22.000 293.200 C 22.220 293.200,22.400 293.560,22.400 294.000 C 22.400 294.440,22.580 294.800,22.800 294.800 C 23.020 294.800,23.200 295.036,23.200 295.325 C 23.200 295.613,23.560 296.236,24.000 296.708 C 24.440 297.180,24.800 297.771,24.800 298.022 C 24.800 298.272,25.140 298.954,25.556 299.538 C 25.972 300.122,26.348 300.731,26.391 300.891 C 26.435 301.051,26.565 301.546,26.682 301.991 C 26.798 302.436,27.011 302.800,27.155 302.800 C 27.299 302.800,27.859 303.610,28.400 304.600 C 28.941 305.590,29.500 306.400,29.643 306.400 C 29.786 306.400,30.127 306.940,30.400 307.600 C 30.673 308.260,31.033 308.800,31.200 308.800 C 31.367 308.800,31.727 309.340,32.000 310.000 C 32.273 310.660,32.655 311.200,32.849 311.200 C 33.042 311.200,33.200 311.520,33.200 311.912 C 33.200 312.303,33.560 312.883,34.000 313.200 C 34.440 313.517,34.800 314.025,34.800 314.328 C 34.800 314.631,35.340 315.383,36.000 316.000 C 36.660 316.617,37.200 317.369,37.200 317.672 C 37.200 317.975,37.560 318.483,38.000 318.800 C 38.440 319.117,38.804 319.562,38.809 319.788 C 38.814 320.015,39.399 320.846,40.109 321.636 C 40.819 322.426,41.760 323.566,42.200 324.169 C 42.640 324.771,43.405 325.745,43.900 326.332 C 44.394 326.920,44.799 327.518,44.800 327.663 C 44.800 327.808,45.565 328.729,46.500 329.710 C 48.410 331.714,49.600 333.124,49.600 333.382 C 49.600 333.607,57.204 341.200,57.429 341.200 C 57.523 341.200,57.600 329.413,57.600 315.006 C 57.600 297.356,57.744 288.190,58.041 286.906 C 58.832 283.482,59.284 281.817,59.699 280.800 C 59.923 280.250,60.248 279.440,60.420 279.000 C 61.452 276.362,61.828 275.600,62.098 275.600 C 62.264 275.600,62.400 275.407,62.400 275.172 C 62.400 274.393,64.907 271.041,67.573 268.255 C 72.011 263.618,77.357 260.452,83.400 258.880 C 84.280 258.651,85.741 258.269,86.646 258.032 C 87.762 257.739,99.262 257.600,122.346 257.600 L 156.400 257.600 156.400 230.726 L 156.400 203.853 160.100 207.453 C 162.135 209.433,164.520 211.580,165.400 212.224 C 166.280 212.868,167.090 213.513,167.200 213.656 C 168.125 214.860,176.490 219.294,181.400 221.182 C 185.191 222.641,197.332 225.600,199.524 225.600 C 199.890 225.600,200.000 213.180,200.000 172.057 L 200.000 118.515 194.900 118.254 C 186.105 117.803,177.723 116.800,169.200 115.178 C 167.990 114.948,166.280 114.660,165.400 114.539 C 164.520 114.417,163.629 114.156,163.420 113.959 C 163.211 113.762,162.367 113.600,161.544 113.600 C 160.721 113.600,159.948 113.440,159.827 113.244 C 159.622 112.912,158.686 112.691,155.184 112.151 L 153.768 111.932 153.029 115.666 C 152.622 117.720,152.151 120.120,151.982 121.000 C 151.812 121.880,151.459 123.680,151.197 125.000 C 150.934 126.320,150.552 128.300,150.347 129.400 C 150.142 130.500,149.800 132.255,149.587 133.300 C 149.374 134.345,149.014 136.145,148.787 137.300 C 148.152 140.530,147.611 143.222,147.200 145.200 C 146.994 146.190,146.666 147.900,146.471 149.000 C 146.276 150.100,145.898 151.539,145.631 152.197 L 145.146 153.394 142.138 150.197 C 140.484 148.439,138.291 146.016,137.265 144.813 C 136.239 143.609,134.380 141.539,133.133 140.213 C 131.885 138.886,130.306 137.095,129.623 136.234 C 128.401 134.691,128.280 134.384,127.804 131.600 C 127.672 130.830,127.383 129.210,127.162 128.000 C 126.941 126.790,126.602 124.540,126.408 123.000 C 126.215 121.460,125.824 118.400,125.541 116.200 C 124.884 111.110,124.852 92.046,125.493 88.200 C 126.058 84.816,126.585 82.339,127.198 80.200 C 127.450 79.320,127.755 78.192,127.876 77.694 C 127.997 77.196,128.254 76.690,128.448 76.570 C 128.641 76.451,128.802 76.048,128.805 75.676 C 128.813 74.589,131.910 68.824,134.004 65.997 C 139.116 59.095,146.863 54.376,155.672 52.798 C 157.062 52.549,158.602 52.265,159.092 52.167 C 159.583 52.069,160.573 51.405,161.292 50.692 C 169.704 42.353,182.221 35.987,194.000 34.056 C 195.430 33.822,197.899 33.415,199.487 33.153 C 206.520 31.992,220.697 34.201,228.400 37.658 C 228.950 37.905,229.760 38.249,230.200 38.422 C 233.267 39.632,235.058 40.445,238.591 42.237 C 242.863 44.403,244.477 45.277,244.800 45.600 C 244.910 45.710,245.630 46.139,246.400 46.553 C 249.526 48.234,258.847 54.581,263.600 58.265 C 274.452 66.677,293.190 84.777,293.198 86.856 C 293.199 87.216,292.542 88.026,291.737 88.656 C 288.847 90.917,287.798 91.805,287.667 92.100 C 287.593 92.265,287.370 92.400,287.171 92.400 C 286.829 92.400,285.754 93.189,284.584 94.300 C 284.294 94.575,283.864 94.800,283.629 94.800 C 283.393 94.800,283.200 94.950,283.200 95.132 C 283.200 95.315,282.705 95.720,282.100 96.032 C 281.495 96.345,280.651 96.915,280.225 97.300 C 279.798 97.685,279.228 98.000,278.958 98.000 C 278.688 98.000,278.407 98.135,278.333 98.300 C 278.168 98.672,276.041 99.973,275.116 100.267 C 274.513 100.459,274.410 101.362,274.242 107.942 C 274.137 112.044,273.940 116.570,273.803 118.000 L 273.556 120.600 275.353 122.326 C 281.380 128.115,282.356 133.795,280.657 153.200 C 279.531 166.051,274.546 172.049,264.939 172.111 C 261.792 172.132,261.613 172.232,260.827 174.400 C 257.785 182.792,252.182 193.092,246.764 200.252 L 244.000 203.904 244.000 230.752 L 244.000 257.600 278.976 257.600 C 301.863 257.600,314.038 257.738,314.200 258.000 C 314.336 258.220,315.056 258.400,315.800 258.400 C 316.544 258.400,317.264 258.580,317.400 258.800 C 317.536 259.020,318.051 259.200,318.544 259.200 C 319.037 259.200,319.611 259.343,319.820 259.518 C 320.029 259.693,320.914 260.079,321.787 260.376 C 325.149 261.518,331.687 266.255,333.853 269.117 C 334.470 269.933,335.352 271.013,335.814 271.517 C 336.275 272.021,337.430 274.001,338.380 275.917 C 339.331 277.833,340.264 279.713,340.454 280.095 C 340.644 280.477,340.800 281.141,340.800 281.571 C 340.800 282.001,340.980 282.464,341.200 282.600 C 341.420 282.736,341.600 283.456,341.600 284.200 C 341.600 284.944,341.780 285.664,342.000 285.800 C 342.260 285.961,342.400 295.604,342.400 313.424 C 342.400 330.672,342.542 340.800,342.785 340.800 C 343.322 340.800,350.400 333.729,350.400 333.192 C 350.400 332.950,350.580 332.864,350.800 333.000 C 351.020 333.136,351.200 332.999,351.200 332.696 C 351.200 332.392,352.279 330.987,353.598 329.572 C 354.917 328.157,356.000 326.820,356.005 326.600 C 356.009 326.380,356.505 325.632,357.106 324.937 C 359.206 322.512,359.600 321.988,359.600 321.622 C 359.600 321.420,359.960 321.140,360.400 321.000 C 360.840 320.860,361.200 320.487,361.200 320.169 C 361.200 319.852,361.740 319.028,362.400 318.337 C 363.060 317.646,363.600 316.866,363.600 316.603 C 363.600 316.339,363.960 315.798,364.400 315.400 C 364.840 315.002,365.200 314.474,365.200 314.226 C 365.200 313.979,365.560 313.517,366.000 313.200 C 366.440 312.883,366.800 312.303,366.800 311.912 C 366.800 311.520,366.950 311.200,367.132 311.200 C 367.315 311.200,367.720 310.705,368.032 310.100 C 368.345 309.495,368.915 308.651,369.300 308.225 C 369.685 307.799,370.224 306.944,370.497 306.325 C 370.771 305.706,371.114 305.200,371.259 305.200 C 371.403 305.200,371.710 304.660,371.940 304.000 C 372.170 303.340,372.548 302.800,372.779 302.800 C 373.011 302.800,373.200 302.440,373.200 302.000 C 373.200 301.560,373.359 301.200,373.553 301.200 C 373.897 301.200,374.530 299.704,374.443 299.100 C 374.419 298.935,374.580 298.800,374.800 298.800 C 375.020 298.800,375.200 298.522,375.200 298.183 C 375.200 297.844,375.560 297.180,376.000 296.708 C 376.440 296.236,376.800 295.613,376.800 295.325 C 376.800 295.036,376.980 294.800,377.200 294.800 C 377.420 294.800,377.600 294.440,377.600 294.000 C 377.600 293.560,377.780 293.200,378.000 293.200 C 378.220 293.200,378.400 292.840,378.400 292.400 C 378.400 291.960,378.535 291.599,378.700 291.597 C 379.065 291.593,380.000 289.651,380.000 288.897 C 380.000 288.598,380.180 288.464,380.400 288.600 C 380.628 288.741,380.800 288.396,380.800 287.800 C 380.800 287.204,380.972 286.859,381.200 287.000 C 381.434 287.145,381.600 286.730,381.600 286.000 C 381.600 285.270,381.766 284.855,382.000 285.000 C 382.220 285.136,382.400 284.887,382.400 284.447 C 382.400 284.007,382.580 283.536,382.800 283.400 C 383.020 283.264,383.200 282.803,383.200 282.376 C 383.200 281.949,383.380 281.600,383.600 281.600 C 383.820 281.600,384.000 281.240,384.000 280.800 C 384.000 280.360,384.180 280.000,384.400 280.000 C 384.620 280.000,384.800 279.640,384.800 279.200 C 384.800 278.760,384.980 278.400,385.200 278.400 C 385.420 278.400,385.600 277.860,385.600 277.200 C 385.600 276.540,385.780 276.000,386.000 276.000 C 386.220 276.000,386.400 275.651,386.400 275.224 C 386.400 274.797,386.580 274.336,386.800 274.200 C 387.020 274.064,387.200 273.503,387.200 272.953 C 387.200 272.388,387.374 272.060,387.600 272.200 C 387.820 272.336,388.000 272.074,388.000 271.618 C 388.000 271.162,388.180 270.432,388.400 269.995 C 388.620 269.558,388.980 268.842,389.200 268.405 C 389.420 267.968,389.600 267.278,389.600 266.872 C 389.600 266.466,389.735 265.998,389.900 265.833 C 390.065 265.668,390.218 265.413,390.239 265.267 C 390.542 263.201,390.974 261.540,391.253 261.368 C 391.444 261.249,391.600 260.623,391.600 259.976 C 391.600 259.329,391.780 258.800,392.000 258.800 C 392.220 258.800,392.400 258.170,392.400 257.400 C 392.400 256.630,392.580 256.000,392.800 256.000 C 393.020 256.000,393.200 255.381,393.200 254.624 C 393.200 253.867,393.380 253.136,393.600 253.000 C 393.820 252.864,394.000 252.234,394.000 251.600 C 394.000 250.966,394.180 250.336,394.400 250.200 C 394.620 250.064,394.800 249.344,394.800 248.600 C 394.800 247.856,394.980 247.136,395.200 247.000 C 395.420 246.864,395.600 246.144,395.600 245.400 C 395.600 244.656,395.780 243.936,396.000 243.800 C 396.220 243.664,396.400 242.663,396.400 241.576 C 396.400 240.489,396.580 239.600,396.800 239.600 C 397.020 239.600,397.200 238.801,397.200 237.824 C 397.200 236.847,397.380 235.936,397.600 235.800 C 397.820 235.664,398.000 234.584,398.000 233.400 C 398.000 232.216,398.180 231.136,398.400 231.000 C 398.620 230.864,398.800 229.518,398.800 228.010 C 398.800 226.171,398.965 225.212,399.300 225.100 C 400.032 224.856,400.032 175.144,399.300 174.900 C 398.965 174.788,398.800 173.829,398.800 171.990 C 398.800 170.482,398.620 169.136,398.400 169.000 C 398.180 168.864,398.000 167.773,398.000 166.576 C 398.000 165.379,397.820 164.400,397.600 164.400 C 397.380 164.400,397.200 163.511,397.200 162.424 C 397.200 161.337,397.020 160.336,396.800 160.200 C 396.580 160.064,396.400 159.164,396.400 158.200 C 396.400 157.236,396.220 156.336,396.000 156.200 C 395.780 156.064,395.600 155.243,395.600 154.376 C 395.600 153.509,395.420 152.800,395.200 152.800 C 394.980 152.800,394.800 152.181,394.800 151.424 C 394.800 150.667,394.620 149.936,394.400 149.800 C 394.180 149.664,394.000 148.933,394.000 148.176 C 394.000 147.419,393.820 146.800,393.600 146.800 C 393.380 146.800,393.200 146.260,393.200 145.600 C 393.200 144.940,393.020 144.400,392.800 144.400 C 392.580 144.400,392.400 143.781,392.400 143.024 C 392.400 142.267,392.220 141.536,392.000 141.400 C 391.780 141.264,391.600 140.623,391.600 139.976 C 391.600 139.329,391.409 138.800,391.175 138.800 C 390.941 138.800,390.790 138.485,390.838 138.100 C 390.937 137.325,390.537 135.486,389.969 134.100 C 389.766 133.605,389.399 132.705,389.153 132.100 C 388.908 131.495,388.548 130.687,388.353 130.305 C 388.159 129.923,388.000 129.259,388.000 128.829 C 388.000 128.399,387.820 127.936,387.600 127.800 C 387.380 127.664,387.200 127.113,387.200 126.576 C 387.200 126.039,387.020 125.600,386.800 125.600 C 386.580 125.600,386.400 125.240,386.400 124.800 C 386.400 124.360,386.220 124.000,386.000 124.000 C 385.780 124.000,385.600 123.550,385.600 123.000 C 385.600 122.450,385.420 122.000,385.200 122.000 C 384.980 122.000,384.800 121.651,384.800 121.224 C 384.800 120.797,384.620 120.336,384.400 120.200 C 384.180 120.064,384.000 119.603,384.000 119.176 C 384.000 118.749,383.820 118.400,383.600 118.400 C 383.380 118.400,383.200 118.040,383.200 117.600 C 383.200 117.160,383.020 116.800,382.800 116.800 C 382.580 116.800,382.400 116.350,382.400 115.800 C 382.400 115.250,382.220 114.800,382.000 114.800 C 381.780 114.800,381.600 114.440,381.600 114.000 C 381.600 113.560,381.420 113.200,381.200 113.200 C 380.980 113.200,380.800 112.840,380.800 112.400 C 380.800 111.960,380.620 111.600,380.400 111.600 C 380.180 111.600,380.000 111.366,380.000 111.080 C 380.000 110.344,379.059 108.407,378.700 108.403 C 378.535 108.401,378.400 108.122,378.400 107.783 C 378.400 107.444,378.040 106.780,377.600 106.308 C 377.160 105.836,376.800 105.022,376.800 104.501 C 376.800 103.971,376.624 103.662,376.400 103.800 C 376.180 103.936,376.000 103.767,376.000 103.424 C 376.000 103.081,375.820 102.800,375.600 102.800 C 375.380 102.800,375.200 102.440,375.200 102.000 C 375.200 101.560,375.020 101.200,374.800 101.200 C 374.580 101.200,374.429 101.065,374.464 100.900 C 374.560 100.445,373.911 99.067,373.319 98.468 C 373.029 98.175,372.895 97.770,373.020 97.568 C 373.145 97.365,373.078 97.200,372.872 97.200 C 372.666 97.200,372.273 96.660,372.000 96.000 C 371.727 95.340,371.389 94.800,371.249 94.800 C 371.110 94.800,370.771 94.294,370.497 93.675 C 370.224 93.056,369.640 92.164,369.200 91.692 C 368.760 91.220,368.400 90.596,368.400 90.305 C 368.400 90.014,368.040 89.517,367.600 89.200 C 367.160 88.883,366.800 88.343,366.800 88.000 C 366.800 87.657,366.440 87.117,366.000 86.800 C 365.560 86.483,365.200 85.943,365.200 85.600 C 365.200 85.257,364.840 84.717,364.400 84.400 C 363.960 84.083,363.600 83.620,363.600 83.371 C 363.600 83.122,363.060 82.354,362.400 81.663 C 361.740 80.972,361.200 80.125,361.200 79.780 C 361.200 79.435,361.020 79.264,360.800 79.400 C 360.580 79.536,360.400 79.406,360.400 79.112 C 360.400 78.817,360.040 78.317,359.600 78.000 C 359.160 77.683,358.800 77.277,358.800 77.097 C 358.800 76.918,358.432 76.373,357.982 75.886 C 356.523 74.305,355.201 72.607,355.200 72.313 C 355.200 72.155,354.120 70.905,352.800 69.535 C 351.480 68.165,350.400 66.903,350.400 66.730 C 350.400 66.558,348.555 64.611,346.300 62.404 C 344.045 60.197,342.068 58.258,341.907 58.095 C 341.745 57.933,340.025 56.180,338.084 54.200 C 336.143 52.220,333.922 50.120,333.149 49.534 C 332.376 48.948,330.697 47.463,329.418 46.234 C 328.139 45.005,326.913 44.000,326.693 44.000 C 326.474 44.000,325.958 43.612,325.547 43.139 C 325.136 42.665,324.800 42.423,324.800 42.600 C 324.800 42.777,324.464 42.535,324.053 42.061 C 323.642 41.588,323.142 41.200,322.941 41.200 C 322.741 41.200,322.317 40.840,322.000 40.400 C 321.683 39.960,321.183 39.600,320.888 39.600 C 320.594 39.600,320.464 39.420,320.600 39.200 C 320.736 38.980,320.565 38.800,320.220 38.800 C 319.875 38.800,319.028 38.260,318.337 37.600 C 317.646 36.940,316.878 36.400,316.629 36.400 C 316.380 36.400,315.917 36.040,315.600 35.600 C 315.283 35.160,314.743 34.800,314.400 34.800 C 314.057 34.800,313.517 34.440,313.200 34.000 C 312.883 33.560,312.303 33.200,311.912 33.200 C 311.520 33.200,311.200 33.050,311.200 32.868 C 311.200 32.685,310.705 32.281,310.100 31.970 C 309.495 31.660,308.709 31.089,308.353 30.703 C 307.997 30.316,307.412 30.000,307.053 30.000 C 306.694 30.000,306.400 29.820,306.400 29.600 C 306.400 29.380,306.212 29.200,305.983 29.200 C 305.754 29.200,305.180 28.840,304.708 28.400 C 304.236 27.960,303.613 27.600,303.325 27.600 C 303.036 27.600,302.800 27.420,302.800 27.200 C 302.800 26.980,302.440 26.800,302.000 26.800 C 301.560 26.800,301.200 26.641,301.200 26.447 C 301.200 26.103,299.704 25.470,299.100 25.557 C 298.935 25.581,298.800 25.420,298.800 25.200 C 298.800 24.980,298.440 24.800,298.000 24.800 C 297.560 24.800,297.200 24.620,297.200 24.400 C 297.200 24.180,296.840 24.000,296.400 24.000 C 295.960 24.000,295.600 23.848,295.600 23.663 C 295.600 23.477,294.745 22.895,293.700 22.368 C 292.655 21.842,291.710 21.318,291.600 21.205 C 291.137 20.730,289.566 20.000,289.005 20.000 C 288.672 20.000,288.400 19.820,288.400 19.600 C 288.400 19.380,288.130 19.200,287.800 19.200 C 287.470 19.200,287.200 19.020,287.200 18.800 C 287.200 18.580,286.761 18.400,286.224 18.400 C 285.687 18.400,285.136 18.220,285.000 18.000 C 284.864 17.780,284.403 17.600,283.976 17.600 C 283.549 17.600,283.200 17.420,283.200 17.200 C 283.200 16.980,282.840 16.800,282.400 16.800 C 281.960 16.800,281.600 16.620,281.600 16.400 C 281.600 16.180,281.240 16.000,280.800 16.000 C 280.360 16.000,280.000 15.820,280.000 15.600 C 280.000 15.380,279.640 15.200,279.200 15.200 C 278.760 15.200,278.400 15.059,278.400 14.887 C 278.400 14.715,277.905 14.534,277.300 14.484 C 276.695 14.434,276.140 14.215,276.067 13.997 C 275.993 13.778,275.588 13.600,275.167 13.600 C 274.745 13.600,274.400 13.420,274.400 13.200 C 274.400 12.980,273.961 12.800,273.424 12.800 C 272.887 12.800,272.336 12.620,272.200 12.400 C 272.064 12.180,271.524 12.000,271.000 12.000 C 270.476 12.000,269.936 11.820,269.800 11.600 C 269.664 11.380,269.203 11.200,268.776 11.200 C 268.349 11.200,268.000 11.020,268.000 10.800 C 268.000 10.580,267.561 10.400,267.024 10.400 C 266.487 10.400,265.951 10.244,265.832 10.053 C 265.660 9.774,263.999 9.342,261.933 9.039 C 261.787 9.018,261.532 8.865,261.367 8.700 C 261.202 8.535,260.557 8.400,259.933 8.400 C 259.310 8.400,258.800 8.220,258.800 8.000 C 258.800 7.780,258.181 7.600,257.424 7.600 C 256.667 7.600,255.936 7.420,255.800 7.200 C 255.664 6.980,255.023 6.800,254.376 6.800 C 253.729 6.800,253.200 6.620,253.200 6.400 C 253.200 6.180,252.570 6.000,251.800 6.000 C 251.030 6.000,250.400 5.820,250.400 5.600 C 250.400 5.380,249.680 5.200,248.800 5.200 C 247.920 5.200,247.200 5.020,247.200 4.800 C 247.200 4.580,246.491 4.400,245.624 4.400 C 244.757 4.400,243.936 4.220,243.800 4.000 C 243.664 3.780,242.753 3.600,241.776 3.600 C 240.799 3.600,240.000 3.420,240.000 3.200 C 240.000 2.980,239.100 2.800,238.000 2.800 C 236.900 2.800,236.000 2.620,236.000 2.400 C 236.000 2.174,234.867 2.000,233.400 2.000 C 231.933 2.000,230.800 1.826,230.800 1.600 C 230.800 1.373,229.627 1.200,228.080 1.200 C 226.446 1.200,225.162 1.002,224.863 0.703 C 224.374 0.214,188.033 -0.121,178.500 0.276 M156.982 258.700 C 157.297 259.085,158.366 260.492,159.357 261.828 C 162.942 266.657,168.496 271.577,174.340 275.100 C 175.526 275.815,176.560 276.400,176.637 276.400 C 176.713 276.400,177.739 276.840,178.915 277.378 C 184.239 279.814,193.425 282.000,198.333 282.000 L 200.000 282.000 200.000 270.000 L 200.000 258.000 178.204 258.000 C 157.494 258.000,156.436 258.035,156.982 258.700 " stroke="none" fill="#f7d979" fill-rule="evenodd"></path><path id="path2" d="M201.200 33.432 C 200.650 33.526,198.850 33.793,197.200 34.027 C 184.055 35.889,173.420 40.763,163.231 49.595 C 160.077 52.328,159.332 52.786,157.693 52.996 C 141.166 55.116,129.596 67.335,126.444 86.000 C 125.351 92.474,125.200 94.299,125.196 101.033 C 125.191 110.407,125.909 117.199,128.235 129.800 C 129.124 134.617,129.206 134.791,132.055 137.899 C 133.417 139.385,135.177 141.322,135.966 142.203 C 142.783 149.824,144.251 151.437,144.600 151.688 C 144.987 151.966,145.165 151.393,145.995 147.200 C 146.190 146.210,146.458 144.860,146.589 144.200 C 146.720 143.540,147.015 142.010,147.246 140.800 C 147.476 139.590,147.816 137.880,148.000 137.000 C 148.184 136.120,148.544 134.320,148.800 133.000 C 149.056 131.680,149.416 129.880,149.600 129.000 C 149.963 127.267,150.354 125.284,151.612 118.800 C 153.386 109.654,152.724 110.554,156.900 111.618 C 168.957 114.689,178.757 116.283,191.600 117.263 C 210.698 118.720,227.737 117.325,243.368 113.026 C 246.142 112.263,246.388 112.407,246.860 115.080 C 247.306 117.597,247.937 120.935,248.416 123.300 C 248.627 124.345,248.980 126.100,249.200 127.200 C 249.420 128.300,249.780 130.100,250.000 131.200 C 250.220 132.300,250.580 134.100,250.800 135.200 C 251.020 136.300,251.373 138.055,251.584 139.100 C 251.796 140.145,252.156 141.990,252.384 143.200 C 252.613 144.410,252.981 146.300,253.202 147.400 C 253.423 148.500,253.716 150.075,253.854 150.900 C 254.199 152.958,254.736 152.799,257.237 149.900 C 258.424 148.525,260.476 146.222,261.797 144.783 C 270.786 134.993,270.822 134.946,271.276 132.400 C 273.291 121.091,274.057 112.258,274.002 100.959 C 274.000 100.571,279.257 96.800,279.798 96.800 C 280.747 96.800,292.800 87.317,292.800 86.571 C 292.800 84.806,271.131 64.508,261.400 57.158 C 254.827 52.193,239.436 42.400,238.205 42.400 C 238.136 42.400,236.487 41.671,234.540 40.781 C 229.045 38.267,228.065 37.867,225.000 36.880 C 220.992 35.589,217.650 34.679,214.600 34.047 C 212.432 33.597,202.826 33.157,201.200 33.432 M259.900 257.900 C 268.755 257.960,283.245 257.960,292.100 257.900 C 300.955 257.840,293.710 257.791,276.000 257.791 C 258.290 257.791,251.045 257.840,259.900 257.900 " stroke="none" fill="#9b5320" fill-rule="evenodd"></path><path id="path3" d="M156.243 259.033 C 156.109 259.381,156.000 290.174,156.000 327.461 C 156.000 402.277,155.781 396.400,158.571 396.400 C 159.357 396.400,160.000 396.580,160.000 396.800 C 160.000 397.020,160.990 397.200,162.200 397.200 C 163.410 397.200,164.400 397.380,164.400 397.600 C 164.400 397.822,165.467 398.000,166.800 398.000 C 168.133 398.000,169.200 398.178,169.200 398.400 C 169.200 398.628,170.389 398.800,171.967 398.800 C 173.824 398.800,174.788 398.964,174.900 399.300 C 175.031 399.693,180.409 399.800,200.000 399.800 C 219.591 399.800,224.969 399.693,225.100 399.300 C 225.212 398.964,226.176 398.800,228.033 398.800 C 229.611 398.800,230.800 398.628,230.800 398.400 C 230.800 398.178,231.867 398.000,233.200 398.000 C 234.533 398.000,235.600 397.822,235.600 397.600 C 235.600 397.380,236.590 397.200,237.800 397.200 C 239.010 397.200,240.000 397.020,240.000 396.800 C 240.000 396.580,240.855 396.400,241.900 396.400 L 243.800 396.400 243.700 346.700 C 243.644 319.365,243.554 288.319,243.500 277.709 L 243.400 258.419 241.069 261.573 C 237.922 265.834,233.102 270.422,228.585 273.458 C 223.584 276.819,216.955 279.587,211.200 280.716 C 209.990 280.954,208.041 281.340,206.869 281.574 C 199.667 283.014,187.120 281.131,178.915 277.378 C 177.739 276.840,176.713 276.400,176.637 276.400 C 175.732 276.400,167.502 270.522,164.780 267.932 C 162.525 265.786,158.780 261.367,157.778 259.670 C 156.938 258.248,156.598 258.107,156.243 259.033 M141.400 392.000 C 141.536 392.220,141.907 392.400,142.224 392.400 C 142.541 392.400,142.800 392.220,142.800 392.000 C 142.800 391.780,142.429 391.600,141.976 391.600 C 141.523 391.600,141.264 391.780,141.400 392.000 M146.600 393.600 C 146.736 393.820,147.107 394.000,147.424 394.000 C 147.741 394.000,148.000 393.820,148.000 393.600 C 148.000 393.380,147.629 393.200,147.176 393.200 C 146.723 393.200,146.464 393.380,146.600 393.600 M150.000 394.400 C 150.000 394.620,150.270 394.800,150.600 394.800 C 150.930 394.800,151.200 394.620,151.200 394.400 C 151.200 394.180,150.930 394.000,150.600 394.000 C 150.270 394.000,150.000 394.180,150.000 394.400 " stroke="none" fill="#e4e4e4" fill-rule="evenodd"></path><path id="path4" d="M199.678 33.140 C 199.171 33.283,201.961 33.409,205.878 33.420 C 210.338 33.433,212.178 33.336,210.800 33.160 C 208.035 32.807,200.903 32.794,199.678 33.140 M193.800 33.978 C 193.140 34.147,191.610 34.515,190.400 34.798 C 183.503 36.408,175.113 40.044,169.800 43.725 C 167.862 45.068,162.709 49.288,161.292 50.692 C 160.573 51.405,159.583 52.069,159.092 52.167 C 158.602 52.265,157.062 52.549,155.672 52.798 C 146.863 54.376,139.116 59.095,134.004 65.997 C 131.910 68.824,128.813 74.589,128.805 75.676 C 128.802 76.048,128.641 76.451,128.448 76.570 C 128.254 76.690,127.997 77.196,127.876 77.694 C 127.755 78.192,127.450 79.320,127.198 80.200 C 126.585 82.339,126.058 84.816,125.493 88.200 C 124.852 92.046,124.884 111.110,125.541 116.200 C 125.824 118.400,126.215 121.460,126.408 123.000 C 126.602 124.540,126.941 126.790,127.162 128.000 C 127.383 129.210,127.672 130.830,127.804 131.600 C 128.280 134.384,128.401 134.691,129.623 136.234 C 130.306 137.095,131.885 138.886,133.133 140.213 C 134.380 141.539,136.239 143.609,137.265 144.813 C 138.291 146.016,140.484 148.439,142.138 150.197 L 145.146 153.394 145.631 152.197 C 145.898 151.539,146.264 150.190,146.445 149.200 C 146.626 148.210,146.960 146.455,147.187 145.300 C 147.414 144.145,147.786 142.255,148.013 141.100 C 148.240 139.945,148.600 138.145,148.813 137.100 C 149.475 133.852,149.986 131.276,150.360 129.300 C 150.558 128.255,150.934 126.320,151.197 125.000 C 151.459 123.680,151.812 121.880,151.982 121.000 C 152.151 120.120,152.622 117.720,153.029 115.666 L 153.768 111.932 155.184 112.151 C 158.686 112.691,159.622 112.912,159.827 113.244 C 159.948 113.440,160.721 113.600,161.544 113.600 C 162.367 113.600,163.211 113.762,163.420 113.959 C 163.629 114.156,164.520 114.417,165.400 114.539 C 166.280 114.660,167.990 114.948,169.200 115.178 C 177.723 116.800,186.105 117.803,194.900 118.254 L 200.000 118.515 200.000 172.057 C 200.000 213.180,199.890 225.600,199.524 225.600 C 197.332 225.600,185.191 222.641,181.400 221.182 C 176.490 219.294,168.125 214.860,167.200 213.656 C 167.090 213.513,166.280 212.868,165.400 212.224 C 164.520 211.580,162.135 209.433,160.100 207.453 L 156.400 203.853 156.400 230.726 L 156.400 257.600 122.346 257.600 C 102.002 257.600,87.711 257.754,86.846 257.982 C 86.051 258.192,84.884 258.471,84.253 258.601 C 83.622 258.732,83.190 258.923,83.293 259.027 C 83.396 259.130,84.779 258.941,86.367 258.607 C 91.085 257.614,155.863 257.701,156.124 258.700 C 156.298 259.367,156.309 259.367,156.354 258.700 C 156.397 258.042,157.722 258.000,178.200 258.000 L 200.000 258.000 200.000 270.053 L 200.000 282.105 202.900 281.848 C 208.375 281.363,213.865 280.307,216.600 279.213 C 223.409 276.491,223.271 276.555,227.000 274.372 C 227.880 273.857,228.690 273.329,228.800 273.199 C 228.910 273.068,229.630 272.523,230.400 271.988 C 234.534 269.113,238.151 265.402,242.574 259.497 L 244.000 257.593 244.000 230.748 L 244.000 203.904 246.764 200.252 C 252.182 193.092,257.785 182.792,260.827 174.400 C 261.613 172.232,261.792 172.132,264.939 172.111 C 274.546 172.049,279.531 166.051,280.657 153.200 C 282.354 133.816,281.386 128.157,275.375 122.332 C 273.983 120.983,273.589 120.309,273.548 119.206 C 273.519 118.433,273.266 119.510,272.984 121.600 C 272.504 125.169,272.028 128.179,271.275 132.400 C 270.822 134.946,270.786 134.993,261.797 144.783 C 260.476 146.222,258.424 148.525,257.237 149.900 C 254.736 152.799,254.199 152.958,253.854 150.900 C 253.716 150.075,253.423 148.500,253.202 147.400 C 252.981 146.300,252.613 144.410,252.384 143.200 C 252.156 141.990,251.796 140.145,251.584 139.100 C 251.373 138.055,251.014 136.255,250.787 135.100 C 250.262 132.426,249.680 129.519,249.187 127.100 C 247.988 121.215,247.497 118.681,246.860 115.080 C 246.388 112.407,246.142 112.263,243.368 113.026 C 221.314 119.091,195.167 119.421,167.200 113.987 C 164.004 113.365,161.498 112.789,156.900 111.618 C 152.724 110.554,153.386 109.654,151.612 118.800 C 150.354 125.284,149.963 127.267,149.600 129.000 C 149.416 129.880,149.056 131.680,148.800 133.000 C 148.544 134.320,148.184 136.120,148.000 137.000 C 147.816 137.880,147.476 139.590,147.246 140.800 C 147.015 142.010,146.720 143.540,146.589 144.200 C 146.458 144.860,146.190 146.210,145.995 147.200 C 145.165 151.393,144.987 151.966,144.600 151.688 C 144.251 151.437,142.783 149.824,135.966 142.203 C 135.177 141.322,133.417 139.385,132.055 137.899 C 129.206 134.791,129.124 134.617,128.235 129.800 C 125.909 117.199,125.191 110.407,125.196 101.033 C 125.200 94.299,125.351 92.474,126.444 86.000 C 129.596 67.335,141.166 55.116,157.693 52.996 C 159.332 52.786,160.077 52.328,163.231 49.595 C 170.149 43.598,177.540 39.282,185.000 36.880 C 189.163 35.539,191.499 34.970,196.600 34.054 L 198.600 33.695 196.800 33.683 C 195.810 33.677,194.460 33.810,193.800 33.978 M214.200 34.000 C 214.640 34.189,215.540 34.335,216.200 34.325 L 217.400 34.305 216.200 34.000 C 215.540 33.832,214.640 33.686,214.200 33.675 L 213.400 33.656 214.200 34.000 M218.200 34.757 C 218.640 34.954,219.810 35.338,220.800 35.611 C 223.042 36.229,227.135 37.542,228.200 37.985 C 234.268 40.511,239.780 43.134,243.069 45.062 C 244.021 45.620,244.799 45.924,244.797 45.738 C 244.795 45.552,244.390 45.203,243.897 44.961 C 243.404 44.720,241.104 43.550,238.787 42.361 C 236.469 41.173,233.769 39.871,232.787 39.469 C 231.062 38.763,229.888 38.272,228.200 37.551 C 225.438 36.371,215.780 33.672,218.200 34.757 M245.764 46.524 C 254.600 52.035,262.203 57.524,270.200 64.167 C 275.504 68.572,292.800 85.719,292.800 86.571 C 292.800 87.317,280.747 96.800,279.798 96.800 C 279.265 96.800,274.000 100.568,274.000 100.950 C 274.000 101.189,273.940 104.679,273.867 108.707 C 273.793 112.736,273.881 115.799,274.061 115.516 C 274.241 115.232,274.391 111.736,274.394 107.747 C 274.399 101.193,274.468 100.472,275.100 100.271 C 276.036 99.975,278.166 98.676,278.333 98.300 C 278.407 98.135,278.688 98.000,278.958 98.000 C 279.228 98.000,279.798 97.685,280.225 97.300 C 280.651 96.915,281.495 96.345,282.100 96.032 C 282.705 95.720,283.200 95.315,283.200 95.132 C 283.200 94.950,283.378 94.800,283.595 94.800 C 283.967 94.800,285.015 94.040,286.216 92.900 C 286.506 92.625,286.921 92.400,287.138 92.400 C 287.355 92.400,287.593 92.265,287.667 92.100 C 287.798 91.805,288.847 90.917,291.737 88.656 C 292.542 88.026,293.199 87.216,293.198 86.856 C 293.190 84.729,272.737 65.049,263.209 58.000 C 262.466 57.450,261.394 56.623,260.829 56.162 C 257.902 53.779,245.939 45.972,245.293 46.024 C 245.132 46.036,245.344 46.261,245.764 46.524 M308.033 257.744 C 308.466 258.118,314.424 258.362,314.198 257.997 C 314.063 257.779,312.583 257.600,310.910 257.600 C 309.236 257.600,307.942 257.665,308.033 257.744 M315.800 258.800 C 316.911 259.278,317.695 259.278,317.400 258.800 C 317.264 258.580,316.668 258.413,316.076 258.428 C 315.115 258.453,315.086 258.493,315.800 258.800 M80.400 259.703 C 79.850 259.949,78.590 260.511,77.600 260.950 C 72.279 263.313,61.155 273.688,62.501 275.034 C 62.599 275.132,63.348 274.204,64.166 272.972 C 67.834 267.448,74.531 262.275,80.995 259.972 C 82.098 259.580,82.640 259.257,82.200 259.256 C 81.760 259.255,80.950 259.456,80.400 259.703 M318.400 259.600 C 319.188 260.109,320.115 260.109,319.800 259.600 C 319.664 259.380,319.158 259.203,318.676 259.206 C 317.964 259.211,317.912 259.285,318.400 259.600 M323.000 261.515 C 330.676 265.609,336.606 272.008,339.455 279.269 C 340.066 280.827,340.640 281.881,340.730 281.611 C 340.915 281.056,340.774 280.713,338.430 276.000 C 335.247 269.601,329.937 264.346,323.272 260.999 C 320.127 259.419,319.895 259.858,323.000 261.515 M61.254 276.823 C 60.494 278.540,60.912 278.693,61.722 276.995 C 62.088 276.228,62.254 275.600,62.091 275.600 C 61.928 275.600,61.552 276.150,61.254 276.823 M59.457 281.243 C 59.187 282.170,58.507 284.886,58.041 286.906 C 57.739 288.211,57.628 296.966,57.690 314.706 L 57.781 340.600 58.020 314.000 C 58.254 288.071,58.325 286.628,59.577 282.426 C 59.802 281.671,59.904 280.970,59.803 280.869 C 59.702 280.768,59.546 280.936,59.457 281.243 M340.828 283.076 C 340.887 284.593,341.541 285.514,341.572 284.124 C 341.587 283.422,341.420 282.736,341.200 282.600 C 340.980 282.464,340.813 282.678,340.828 283.076 M341.904 308.938 C 341.961 321.732,342.058 333.910,342.120 336.000 C 342.182 338.090,342.270 327.706,342.316 312.924 C 342.362 298.142,342.265 285.964,342.100 285.862 C 341.935 285.759,341.847 296.144,341.904 308.938 M262.184 390.427 C 261.760 391.113,262.139 391.180,262.977 390.567 C 263.626 390.093,263.646 390.000,263.100 390.000 C 262.741 390.000,262.329 390.192,262.184 390.427 M259.815 391.176 C 259.687 391.382,259.947 391.524,260.391 391.491 C 260.836 391.457,261.200 391.288,261.200 391.115 C 261.200 390.673,260.096 390.721,259.815 391.176 M251.600 393.600 C 251.600 393.820,251.870 394.000,252.200 394.000 C 252.530 394.000,252.800 393.820,252.800 393.600 C 252.800 393.380,252.530 393.200,252.200 393.200 C 251.870 393.200,251.600 393.380,251.600 393.600 M248.800 394.425 C 248.800 394.880,249.875 394.927,250.149 394.483 C 250.256 394.309,249.997 394.140,249.572 394.108 C 249.148 394.076,248.800 394.219,248.800 394.425 M245.400 395.200 C 245.259 395.428,245.604 395.600,246.200 395.600 C 246.796 395.600,247.141 395.428,247.000 395.200 C 246.864 394.980,246.504 394.800,246.200 394.800 C 245.896 394.800,245.536 394.980,245.400 395.200 " stroke="none" fill="#e7a076" fill-rule="evenodd"></path></g></svg>